<?xml version="1.0" standalone="no"?>
<!DOCTYPE svg PUBLIC "-//W3C//DTD SVG 1.1//EN" "http://www.w3.org/Graphics/SVG/1.1/DTD/svg11.dtd" >
<svg xmlns="http://www.w3.org/2000/svg">
<metadata>
This is a custom SVG webfont generated by Font Squirrel.
Copyright   : Copyright c 20072010 by vernon adams All rights reserved
Foundry     : vernon adams
</metadata>
<defs>
<font id="NobileRegular" horiz-adv-x="1313" >
<font-face units-per-em="2048" ascent="1638" descent="-410" />
<missing-glyph horiz-adv-x="512" />
<glyph unicode=" "  horiz-adv-x="512" />
<glyph unicode="&#x09;" horiz-adv-x="512" />
<glyph unicode="&#xa0;" horiz-adv-x="512" />
<glyph unicode="!" horiz-adv-x="790" d="M293 -16v202h209v-202h-209zM343 399v1180h174v-1180h-174z" />
<glyph unicode="&#x22;" horiz-adv-x="634" d="M36 1508v71h228v-71l-60 -450h-108zM374 1508v71h228v-71l-60 -450h-108z" />
<glyph unicode="#" horiz-adv-x="1234" d="M230 561v123h176l27 221h-175v125h189l31 279h139l-31 -279h189l28 277h142l-31 -277h160v-125h-172l-27 -221h176v-123h-188l-31 -266h-141l32 266h-186l-33 -266h-141l33 266h-166zM549 684h183l26 221h-182z" />
<glyph unicode="$" horiz-adv-x="1139" d="M127 929q0 42 11.5 77t29 64t39 51t41.5 38q47 36 119 57t173 24v150h103v-154q52 -1 110.5 -8.5t107.5 -17t81 -20.5t32 -19l-39 -127q-91 34 -292 55v-390l32 -11q104 -37 172 -75t108.5 -81t57 -92.5t16.5 -109.5q0 -92 -31 -157t-83.5 -107.5t-123 -64.5t-148.5 -29 v-160h-103v158q-153 10 -228 35l-146 48l49 144l103 -40q95 -28 222 -38v439l-106 27q-307 78 -307 334zM294 932q0 -30 8 -54t27.5 -44.5t52 -38.5t82.5 -36l76 -20v360q-75 0 -122.5 -14t-75 -37.5t-38 -53.5t-10.5 -62zM643 539v-405q50 1 91 15.5t70 40.5t44.5 61.5 t15.5 77.5q0 39 -10 67t-34.5 51.5t-67.5 45t-109 46.5z" />
<glyph unicode="%" horiz-adv-x="1724" d="M88 1071q0 -38 5.5 -81.5t19.5 -87.5t37.5 -84.5t59 -71.5t85 -49.5t114.5 -18.5q66 0 115.5 19t85 51t59 72.5t37 84.5t19 87t5.5 79q0 109 -22 189t-63.5 132.5t-101 77.5t-134.5 25t-134.5 -25t-101 -77.5t-63.5 -132.5t-22 -189zM221 1092q0 299 188 299t188 -299 q0 -81 -12.5 -139t-36.5 -94.5t-59 -53.5t-80 -17t-80 17t-59 53.5t-36.5 94.5t-12.5 139zM454 37l682 1460l129 -67l-681 -1452zM999 372q0 -38 5.5 -81.5t19.5 -87.5t37.5 -84.5t59 -71.5t84.5 -49.5t115 -18.5t115.5 19t85 51t59 72.5t37 84.5t19 87t5.5 79 q0 109 -22 189t-63.5 132.5t-101 77.5t-134.5 25t-134.5 -25t-101 -77.5t-63.5 -132.5t-22 -189zM1132 393q0 299 188 299t188 -299q0 -81 -12.5 -139t-36.5 -94.5t-59 -53.5t-80 -17t-80 17t-59 53.5t-36.5 94.5t-12.5 139z" />
<glyph unicode="&#x26;" horiz-adv-x="1658" d="M148 396q0 162 82 269.5t252 156.5l-15 10q-15 11 -37.5 30t-48.5 45.5t-48.5 59t-37.5 69.5t-15 77q0 74 26.5 135t77.5 105t125.5 68t169.5 24q99 0 174 -25.5t125.5 -69.5t76 -104.5t25.5 -130.5q0 -72 -24 -123t-70 -89t-113 -66.5t-152 -55.5l495 -390 q7 103 10.5 203.5t3.5 201.5h164q0 -62 -3.5 -130t-9 -130t-11.5 -113.5t-11 -81.5l-12 -64l226 -182l-86 -102l-211 177q-29 -55 -90.5 -94.5t-140 -65t-165 -37.5t-165.5 -12q-134 0 -239.5 30.5t-178 87.5t-111 137.5t-38.5 179.5zM330 418q0 -84 21 -144t67 -99 t119.5 -57t177.5 -18q350 0 449 156l-588 470q-246 -53 -246 -308zM446 1121q0 -34 13.5 -64.5t34.5 -56.5t44.5 -47.5t44.5 -37t35 -24.5l13 -8q84 25 139.5 47t88.5 47.5t47 59t14 82.5q0 46 -17 81.5t-48.5 60t-76 37t-99.5 12.5q-56 0 -97.5 -9.5t-70 -30.5t-45 -55 t-20.5 -84v-10z" />
<glyph unicode="'" horiz-adv-x="634" d="M205 1508v71h228v-71l-60 -450h-108z" />
<glyph unicode="(" horiz-adv-x="864" d="M283 696q0 128 19 238.5t50.5 202.5t71.5 166.5t82 131.5t82 97t72 63l111 -102q-41 -36 -93 -104t-98.5 -168t-78.5 -232t-32 -295t29.5 -295.5t73 -232t93.5 -166t90 -97.5l-83 -108q-25 16 -63.5 50.5t-82 88t-86.5 126.5t-78 167.5t-57 211.5t-22 257z" />
<glyph unicode=")" horiz-adv-x="864" d="M93 -99q42 36 94 105t98.5 169.5t78 230.5t31.5 288q0 160 -28.5 291.5t-71.5 232t-93 169.5t-92 104l83 108q13 -9 47.5 -37.5t77.5 -78t89.5 -121.5t85.5 -167.5t64 -216.5t25 -268q0 -138 -19.5 -253t-51.5 -209t-73.5 -168t-84.5 -129.5t-85 -94t-75 -61.5z" />
<glyph unicode="*" horiz-adv-x="933" d="M25 1145v92h311l-158 272l103 58l139 -275l139 275l103 -58l-158 -272h311v-92h-309l170 -273l-102 -57l-154 275l-154 -275l-102 57l170 273h-309z" />
<glyph unicode="+" horiz-adv-x="1040" d="M166 518v133h313v344h141v-344h314v-133h-314v-344h-141v344h-313z" />
<glyph unicode="," horiz-adv-x="537" d="M114 0v293h281v-249q0 -115 -58.5 -190t-170.5 -107l-51 94q38 13 63 27t40 33t21 43t6 56h-131z" />
<glyph unicode="-" horiz-adv-x="944" d="M134 508v157h676v-157h-676z" />
<glyph unicode="." horiz-adv-x="518" d="M133 98q0 23 8 44t23 36.5t35.5 25t45.5 9.5q48 0 78 -33.5t30 -81.5t-30 -81.5t-78 -33.5q-25 0 -45.5 9t-35.5 25t-23 37t-8 44z" />
<glyph unicode="/" horiz-adv-x="1043" d="M193 -117l625 1848l169 -62l-624 -1848z" />
<glyph unicode="0" horiz-adv-x="1356" d="M115 590q0 133 36 246.5t107 196.5t177 130t247 47q113 0 199.5 -28.5t150 -77t106 -111.5t68 -132t36.5 -139t11 -132q0 -128 -35.5 -241t-107 -197.5t-178.5 -133.5t-250 -49q-113 0 -199 29.5t-149 79t-105 114t-67.5 133.5t-36 137.5t-10.5 127.5zM301 592 q0 -101 17 -176t46 -128.5t67.5 -88t80.5 -54t86 -27t84 -7.5q78 0 136.5 20t101.5 54.5t71 82t45 102.5t24 115t7 121q0 51 -7 105.5t-23.5 106t-44.5 97t-71 80t-102 54.5t-137 20q-113 0 -186.5 -41t-117 -108t-60.5 -152.5t-17 -175.5z" />
<glyph unicode="1" horiz-adv-x="744" d="M54 1083l257 119h190v-1202h-187v1057l-207 -100z" />
<glyph unicode="2" horiz-adv-x="1104" d="M123 0v146l408 334q76 63 123.5 111.5t74.5 90t37 80.5t10 84q0 103 -71.5 158t-204.5 55q-27 0 -59.5 -5t-64 -12.5t-59 -16t-45.5 -16.5l-37 -17l-53 116l20 14q20 15 61.5 31.5t105.5 30.5t153 14q83 0 146.5 -14.5t109.5 -40t77 -60t49.5 -73.5t26 -81.5t7.5 -83.5 q0 -55 -14 -107.5t-50 -108.5t-97.5 -118t-155.5 -135l-279 -224h596v-152h-815z" />
<glyph unicode="3" horiz-adv-x="1136" d="M106 -102l54 133l32 -15q30 -15 78.5 -31.5t112 -30t132.5 -13.5q140 0 212 62.5t72 182.5q0 247 -336 285v143q58 0 114 11t100 37t71 70.5t27 110.5q0 115 -71 167.5t-218 52.5q-35 0 -73.5 -5t-73.5 -13t-64.5 -17t-47.5 -18l-38 -18l-50 133q3 1 32.5 14t77.5 28 t111 27t132 12q44 0 94 -5.5t100 -20t96 -39t81 -62.5t56 -90.5t21 -122.5q0 -60 -15 -107t-39.5 -83t-55.5 -60.5t-63 -40.5t-62.5 -23t-53.5 -7q43 -9 99.5 -30.5t107.5 -64.5t86 -112t35 -172q0 -95 -41.5 -163.5t-108 -113t-150.5 -66t-168 -21.5q-50 0 -103 7 t-101.5 17.5t-88 23.5t-62.5 24z" />
<glyph unicode="4" horiz-adv-x="1199" d="M78 205l684 1003l162 -39v-962h186v-139h-186v-328h-169v328h-649zM263 205h492v725z" />
<glyph unicode="5" horiz-adv-x="1102" d="M135 -115l51 146l6 -3q12 -6 44 -20t77 -28t98 -25t107 -11q317 0 317 300q0 151 -76.5 234.5t-220.5 83.5q-107 0 -299 -94l-68 69v632h748v-151h-603v-396q0 -1 13.5 11t42.5 26.5t74.5 26.5t109.5 12q100 0 183 -32t142.5 -90.5t92.5 -141.5t33 -186q0 -105 -34 -189 t-97.5 -143.5t-154.5 -91t-205 -31.5q-81 0 -150.5 15t-121 33t-80.5 32t-29 12z" />
<glyph unicode="6" horiz-adv-x="1234" d="M117 425q0 129 27.5 239.5t76 203t115.5 166.5t146.5 130t168 94.5t181.5 60.5l43 -145q-52 -11 -110 -31.5t-115 -51.5t-111 -73t-99 -96.5t-77.5 -122.5t-47.5 -150q121 144 341 144q108 0 194 -34t146.5 -94.5t93 -145t32.5 -184.5t-32.5 -189.5t-95.5 -156.5 t-156.5 -106t-215.5 -39q-124 0 -218.5 41t-158 116.5t-96 183t-32.5 240.5zM295 401q0 -45 5 -93.5t18.5 -95t37 -87.5t60 -72t87 -49t119.5 -18q89 0 151 32t100.5 82.5t55.5 112.5t17 122q0 82 -23 142.5t-62.5 100.5t-92 59.5t-112.5 19.5q-58 0 -115.5 -15t-106 -36 t-84 -44t-49.5 -39q-6 -38 -6 -122z" />
<glyph unicode="7" horiz-adv-x="1132" d="M145 1074v155h836l57 -122l-572 -1283l-168 76l525 1174h-678z" />
<glyph unicode="8" horiz-adv-x="1262" d="M158 233q0 159 68.5 261.5t193.5 141.5q-48 16 -94.5 42.5t-84 66.5t-60.5 95t-23 128q0 88 36.5 156t101 114.5t152 71t189.5 24.5q100 0 186 -24.5t148 -71.5t97.5 -115.5t35.5 -156.5q0 -72 -22.5 -126.5t-59.5 -94.5t-84 -67t-96 -44q125 -39 193.5 -141.5 t68.5 -261.5q0 -94 -34.5 -165t-96.5 -118.5t-147.5 -71.5t-188.5 -24q-99 0 -186 23t-152.5 70t-103 118.5t-37.5 169.5zM336 255q0 -64 15 -113t50.5 -82.5t93 -51t142.5 -17.5q87 0 143 18t88.5 52t45 82.5t12.5 109.5q0 69 -21.5 127.5t-60 102t-91.5 68t-116 24.5 q-65 0 -120 -24t-95 -66.5t-63 -101.5t-23 -128zM336 966q0 -59 24.5 -109.5t66 -87t96 -57.5t114.5 -21q58 0 110.5 20.5t92.5 57.5t63 86.5t23 108.5q0 68 -24 113.5t-64.5 72.5t-92.5 38t-108 11q-53 0 -106.5 -10t-97 -36t-70.5 -71.5t-27 -115.5z" />
<glyph unicode="9" horiz-adv-x="1234" d="M117 823q0 100 32.5 189.5t95.5 156.5t156.5 106t215.5 39q124 0 218.5 -41t158 -116.5t96 -183t32.5 -240.5q0 -128 -27 -238t-75 -202t-114.5 -166.5t-146 -131t-169 -95.5t-183.5 -61l-43 145q54 11 112.5 32t115.5 52.5t110.5 74t98 97t76.5 121.5t47 148 q-122 -144 -341 -144q-108 0 -194.5 33.5t-147 94.5t-92.5 145t-32 185zM293 823q0 -82 23 -142.5t62.5 -100.5t92 -59.5t112.5 -19.5q58 0 115.5 14.5t106 35.5t84 44t49.5 40q6 37 6 122q0 45 -5 93.5t-18.5 94.5t-37 87.5t-60 72.5t-87.5 49t-119 18q-89 0 -150.5 -32 t-100 -82t-56 -112t-17.5 -123z" />
<glyph unicode=":" horiz-adv-x="596" d="M180 0v281h270v-281h-270zM180 583v281h270v-281h-270z" />
<glyph unicode=";" horiz-adv-x="596" d="M173 0v293h281v-249q0 -115 -58.5 -190t-170.5 -107l-51 94q38 13 63 27t40 33t21 43t6 56h-131zM174 583v281h280v-281h-280z" />
<glyph unicode="&#x3c;" horiz-adv-x="1507" d="M333 663l655 603l102 -110l-551 -493l551 -493l-102 -110z" />
<glyph unicode="=" horiz-adv-x="864" d="M94 280v131h588v-131h-588zM94 508v131h588v-131h-588z" />
<glyph unicode="&#x3e;" horiz-adv-x="1507" d="M333 170l551 493l-551 493l102 110l655 -603l-655 -603z" />
<glyph unicode="?" horiz-adv-x="1232" d="M112 1475q-1 0 30.5 16.5t87 36t130 35.5t158.5 16q103 0 191 -19.5t153 -63t102 -112.5t37 -168q0 -85 -24.5 -153t-65.5 -121.5t-95 -94.5t-113.5 -73t-120 -56t-115.5 -43v-383h-180v485q133 45 230.5 88.5t161.5 92t96 106.5t35 133q0 61 -18 103t-56 68t-96.5 38 t-140.5 12q-72 0 -132 -13t-103.5 -28.5t-68 -29.5t-24.5 -15zM264 70q0 22 9.5 40t24.5 31t34.5 20.5t39.5 7.5q19 0 37.5 -8.5t32.5 -22.5t22.5 -33.5t8.5 -40.5q0 -22 -8.5 -41t-22.5 -33t-33.5 -22t-40.5 -8q-22 0 -41 8.5t-33 23.5t-22 35t-8 43z" />
<glyph unicode="@" horiz-adv-x="1927" d="M138 578q0 141 33.5 261.5t92.5 218t140 172t175.5 125t199 76t211.5 25.5q108 0 210.5 -18.5t192.5 -57t164.5 -96t128 -135t83.5 -176t30 -217.5q0 -107 -21 -190t-56.5 -145t-81 -104t-94.5 -68.5t-98 -38t-90 -11.5q-35 0 -54.5 9.5t-30 25.5t-13 37t-2.5 45v232 q-12 -59 -42.5 -120.5t-81.5 -112.5t-123.5 -83.5t-168.5 -32.5q-86 0 -154 27.5t-114.5 78t-71 123t-24.5 162.5q0 65 19.5 130t55.5 125t87 111.5t114 89.5t136.5 60t154.5 22q16 0 45 -2.5t62 -6t67 -8.5l57 -7l54 -8l55 -109v-670q61 0 108.5 24.5t79.5 78t49 137 t17 201.5q0 111 -26.5 195.5t-72 146.5t-107.5 103.5t-133.5 67t-149 36t-154.5 10.5q-151 0 -279 -50t-221.5 -145t-146 -232.5t-52.5 -311.5q0 -138 44 -248.5t130.5 -187t214.5 -117.5t297 -41q116 0 202 19t144.5 43.5t91.5 48.5t43 34l6 5l91 -92l-2 -2 q-40 -44 -100 -80t-135 -61.5t-164 -39.5t-187 -14q-220 0 -378 59t-259.5 159.5t-149.5 233.5t-48 281zM633 573q0 -243 225 -243q77 0 145 33t119 103t81.5 179t32.5 261l1 81q1 -1 -25 4.5t-69 10.5l-42 4q-21 2 -40 2q-84 0 -161.5 -31.5t-137 -88.5t-94.5 -137 t-35 -178z" />
<glyph unicode="A" horiz-adv-x="1512" d="M90 0l516 1579h300l516 -1579h-193l-123 383h-700l-123 -383h-193zM439 485h634l-317 975z" />
<glyph unicode="B" horiz-adv-x="1430" d="M210 0v1579h361q148 0 255.5 -13.5t183 -38t122 -59.5t72.5 -78.5t35 -94.5t9 -107q0 -31 -3.5 -64.5t-15.5 -66t-33.5 -63t-58 -56.5t-89 -45.5t-125.5 -30.5q407 -47 407 -428q0 -130 -55 -214t-150 -133t-222.5 -68t-272.5 -19h-420zM404 143h226q139 0 237 15 t160.5 51.5t91.5 99t29 157.5q0 88 -27.5 149t-85.5 99t-149.5 55t-218.5 17h-263v-643zM404 915h259q129 0 210.5 18.5t128 53.5t64 85.5t17.5 115.5q0 63 -20.5 110t-76.5 77.5t-155 45.5t-256 15h-171v-521z" />
<glyph unicode="C" d="M145 788q0 138 19 246t52 192t78 145t97 103.5t109 69t113.5 41.5t110.5 20t101 5q66 0 113.5 -5.5t83.5 -14t64 -17.5l55 -17l86 -26l-45 -145l-77 27q-32 11 -62.5 19.5t-64 14.5t-71 9t-82.5 3q-134 0 -226 -47t-148 -134.5t-80.5 -212.5t-24.5 -280 q0 -194 35.5 -323.5t99 -207t151.5 -110t193 -32.5q30 0 62 5t63 12.5t60 17t54 18.5q16 6 35.5 12.5t26.5 12.5l73 29l56 -139l-69 -28l-9 -4l-24 -11l-31 -14q-16 -7 -29 -11q-22 -8 -53 -17t-68.5 -17t-80 -13t-86.5 -5q-134 0 -234.5 34t-174 93t-122 139t-77 172 t-40.5 192t-12 199z" />
<glyph unicode="D" horiz-adv-x="1589" d="M210 0v1579h575q659 0 659 -791q0 -788 -659 -788h-575zM404 143h381q138 0 227 49t140 135.5t71 205t20 256.5q0 143 -21.5 262t-74 204.5t-140.5 133t-222 47.5h-381v-1293z" />
<glyph unicode="E" horiz-adv-x="1247" d="M210 0v1579h970v-143h-776v-545h678v-115h-678v-633h789v-143h-983z" />
<glyph unicode="F" horiz-adv-x="1179" d="M210 0v1579h921v-143h-725v-557h664v-117h-664v-762h-196z" />
<glyph unicode="G" horiz-adv-x="1508" d="M123 786q0 205 44.5 359.5t130.5 257.5t211.5 155t287.5 52q240 0 431 -117l25 -17l-66 -135q-28 23 -68.5 44t-93.5 37t-117 25.5t-139 9.5q-71 0 -131 -19t-109 -53.5t-85.5 -83.5t-59.5 -109q-31 -79 -45.5 -181t-14.5 -229q0 -174 29 -301t88 -209t148.5 -121.5 t211.5 -39.5q85 0 154.5 18.5t119 54.5t76 90t26.5 125v285h-402v127h587v-811h-88l-53 213q-29 -118 -147 -186t-320 -68q-148 0 -265 59.5t-198.5 168.5t-124.5 261t-43 338z" />
<glyph unicode="H" horiz-adv-x="1640" d="M210 0v1579h194v-700h832v700h194v-1579h-194v764h-832v-764h-194z" />
<glyph unicode="I" horiz-adv-x="983" d="M195 0v112h204v1349h-204v118h593v-118h-206v-1349h206v-112h-593z" />
<glyph unicode="J" horiz-adv-x="782" d="M59 35q79 12 133 31t89 44.5t54.5 56.5t29.5 66q20 69 20 246v1100h192v-1065q0 -101 -6 -176.5t-21.5 -134t-43.5 -105t-72 -88.5q-104 -100 -324 -100z" />
<glyph unicode="K" horiz-adv-x="1383" d="M210 0v1579h194v-725h223l490 725h193l-529 -781l596 -798h-203l-555 747h-215v-747h-194z" />
<glyph unicode="L" horiz-adv-x="1140" d="M210 0v1579h194v-1436h746v-143h-940z" />
<glyph unicode="M" horiz-adv-x="1952" d="M210 0v1579h291l475 -1411l475 1411h291v-1579h-165v1439l-503 -1439h-196l-503 1439v-1439h-165z" />
<glyph unicode="N" horiz-adv-x="1673" d="M210 0v1579h262l819 -1384v1384h172v-1579h-262l-819 1385v-1385h-172z" />
<glyph unicode="O" horiz-adv-x="1600" d="M145 784q0 179 30.5 310t81.5 222.5t117 149t137 89.5t142 43.5t132 11.5q124 0 222 -28t172.5 -80t126.5 -126.5t85.5 -166t48.5 -199t15 -226.5q0 -176 -34.5 -326.5t-112 -261.5t-203 -174t-306.5 -63q-64 0 -137 10.5t-146 41.5t-140 87.5t-118.5 148t-82 223.5 t-30.5 314zM345 784q0 -187 32.5 -315.5t93 -208t146.5 -114.5t193 -35q93 0 162 27t118.5 75t81.5 112.5t50.5 139t25.5 156.5t7 163q0 189 -32 318t-91 208t-143 113.5t-188 34.5q-136 0 -224.5 -53t-140 -144.5t-71.5 -214.5t-20 -262z" />
<glyph unicode="P" horiz-adv-x="1398" d="M210 0v1579h397q203 0 338 -29.5t215.5 -88.5t113.5 -147t33 -206q0 -110 -36 -196.5t-120.5 -147.5t-225.5 -93t-351 -32h-170v-639h-194zM404 784h170q171 0 278.5 21.5t168 60.5t82.5 94.5t22 123.5q0 53 -4.5 100t-20.5 86t-48.5 70t-89 52.5t-140.5 32.5t-203 11 h-215v-652z" />
<glyph unicode="Q" horiz-adv-x="1617" d="M145 792q0 178 38.5 328t119.5 259t206.5 170t299.5 61q65 0 139.5 -11.5t148 -44t141.5 -90.5t120 -149.5t83 -222t31 -308.5q0 -168 -30.5 -307.5t-95 -244.5t-164.5 -172t-238 -89l379 -264l-119 -131l-493 389q-282 32 -424 242.5t-142 584.5zM346 784q0 -91 9 -176 t29.5 -159.5t55 -136.5t86 -107t121.5 -69.5t162 -24.5q94 0 165 25.5t122.5 71t85 108t54 137.5t28.5 159t8 172q0 110 -13 210.5t-44.5 183.5t-84 146t-131.5 98q-83 36 -190 36q-139 0 -229 -54.5t-142 -147.5t-72 -215t-20 -257z" />
<glyph unicode="R" horiz-adv-x="1426" d="M210 0v1579h376q267 0 392 -28q167 -37 246 -133.5t79 -257.5q0 -79 -29.5 -145.5t-84 -115t-130.5 -75.5t-169 -27q97 -11 173.5 -37.5t129.5 -74t80.5 -118t27.5 -170.5v-397h-182v412q0 82 -23 142t-83 100t-163.5 59.5t-265.5 19.5h-180v-733h-194zM404 862h154h87 q66 3 133.5 8.5t122.5 17.5q108 23 167.5 85t64.5 177q-3 93 -31 149.5t-91 86.5t-166.5 40t-258.5 10h-182v-574z" />
<glyph unicode="S" horiz-adv-x="1314" d="M101 1217q0 80 25 140t66 104t94 72.5t108.5 45.5t109 24t96.5 7q269 0 493 -126l-30 -147q-33 21 -78.5 42.5t-98.5 39t-110.5 28.5t-113.5 11q-112 0 -185 -18t-116 -51t-60 -79t-17 -102q0 -45 13 -79.5t41.5 -62t74.5 -49.5t111 -43l283 -92l78 -29q43 -16 86 -39 t83.5 -56.5t71.5 -79.5t50 -108.5t19 -143.5q0 -47 -9 -99.5t-32.5 -104.5t-64 -99.5t-103 -84t-150 -58t-204.5 -21.5q-65 0 -131 9t-127 24.5t-114 36t-90 43.5l20 150l81 -41q41 -20 89 -35.5t106.5 -25t133.5 -9.5q94 0 170 16t129.5 52t82.5 94t29 143q0 61 -18 106 t-52 78.5t-82.5 58.5t-108.5 46l-291 102q-102 36 -171 80.5t-110.5 96.5t-59 110.5t-17.5 122.5z" />
<glyph unicode="T" horiz-adv-x="1083" d="M-12 1436v143h1108v-143h-458v-1436h-190v1436h-460z" />
<glyph unicode="U" horiz-adv-x="1664" d="M204 715v864h192v-868q0 -136 15.5 -234t43.5 -166t67.5 -109.5t87.5 -64t103.5 -30t116.5 -7.5q68 0 127 10t107.5 35t85.5 69t62.5 112t38.5 163t13 222v868h196v-864q0 -160 -28 -297.5t-99 -239t-193 -159.5t-310 -60q-168 0 -287 49.5t-194.5 145.5t-110 237 t-34.5 324z" />
<glyph unicode="V" horiz-adv-x="1375" d="M70 1579h184l434 -1399l434 1399h182l-494 -1579h-244z" />
<glyph unicode="W" horiz-adv-x="1997" d="M77 1579h180l310 -1444l294 1354h274l294 -1354l310 1444h181l-336 -1579h-287l-236 1067l-63 306l-64 -306l-235 -1067h-286z" />
<glyph unicode="X" horiz-adv-x="1300" d="M44 0l497 800l-495 779h196l408 -656l408 656h196l-495 -779l497 -800h-218l-388 626l-20 -32l-368 -594h-218z" />
<glyph unicode="Y" horiz-adv-x="1272" d="M27 1579h197l354 -773l63 -129l413 902h191l-514 -1094v-485h-190v485z" />
<glyph unicode="Z" horiz-adv-x="1193" d="M84 0v180l829 1267h-829v132h1030v-160l-833 -1276h835v-143h-1032z" />
<glyph unicode="[" horiz-adv-x="1054" d="M269 0v1579h664v-143h-471v-1293h471v-143h-664z" />
<glyph unicode="\" horiz-adv-x="1031" d="M117 1679l158 52l623 -1845l-160 -58z" />
<glyph unicode="]" horiz-adv-x="1114" d="M161 0v143h471v1293h-471v143h664v-1579h-664z" />
<glyph unicode="^" horiz-adv-x="1428" d="M374 510l292 501h96l292 -501l-128 -78l-212 377l-212 -377z" />
<glyph unicode="_" horiz-adv-x="1265" d="M127 33h940v-144h-940v144z" />
<glyph unicode="`" horiz-adv-x="778" d="M68 885l242 89l153 -618l-67 -26z" />
<glyph unicode="a" horiz-adv-x="1218" d="M103 339v4q0 89 32 158.5t90 117t140 72t182 24.5q33 0 79.5 -4.5t94.5 -11.5t90.5 -16t66.5 -18v48q0 88 -10 151t-38.5 103.5t-79 60t-131.5 19.5q-77 0 -143.5 -17t-116.5 -38t-80.5 -40t-35.5 -24l-68 132l45 25q175 105 376 105q137 0 228 -27.5t145 -87.5 t76.5 -156t22.5 -233v-686h-140l-28 178q-146 -201 -405 -201q-93 0 -166 23.5t-123 69.5t-76.5 113.5t-26.5 155.5zM294 347q0 -119 59.5 -173.5t188.5 -54.5q173 0 336 152v298q-128 21 -241 21t-178.5 -16t-100.5 -48q-64 -58 -64 -179z" />
<glyph unicode="b" horiz-adv-x="1306" d="M166 0v1579l190 35v-584q7 7 23.5 21.5t41.5 32.5t56.5 36.5t68 34t76.5 25.5t82 10q95 0 167.5 -28t125.5 -75.5t88 -109.5t56.5 -130t30 -137t8.5 -130q0 -117 -26.5 -225.5t-83.5 -191.5t-147.5 -133t-218.5 -50q-55 0 -106.5 15.5t-98.5 42.5t-88.5 63t-76.5 77 l-28 -178h-140zM356 273q157 -150 355 -150q88 0 144 41.5t88 108t43.5 148.5t11.5 163q0 463 -287 463q-51 0 -103.5 -14t-100.5 -35.5t-87.5 -47t-63.5 -48.5v-629z" />
<glyph unicode="c" horiz-adv-x="1104" d="M126 580q0 121 23.5 213t63 160t91.5 113.5t108.5 73t114.5 39t110 11.5q201 0 388 -133l-57 -133q-134 116 -314 116q-163 0 -250.5 -112.5t-87.5 -347.5q0 -128 26.5 -214.5t70.5 -139.5t102.5 -76t123.5 -23q202 0 329 118l57 -134q-188 -134 -391 -134 q-50 0 -107.5 11t-114 37.5t-108.5 71.5t-91.5 112t-63 158.5t-23.5 212.5z" />
<glyph unicode="d" horiz-adv-x="1309" d="M126 584q0 124 29.5 234t87.5 192.5t144.5 131t200.5 48.5q59 0 114.5 -14.5t103.5 -37.5t86 -52t61 -58v586l190 -35v-1579h-141l-28 179q-29 -38 -69 -73.5t-87.5 -63.5t-100.5 -45t-107 -17q-129 0 -220.5 49t-150 132t-86 192.5t-27.5 230.5zM308 587 q0 -464 298 -464q54 0 106 14t97.5 36t82.5 49t61 53v628q-189 144 -353 144q-29 0 -61.5 -5.5t-65 -22.5t-62.5 -48.5t-53 -82.5t-36.5 -125t-13.5 -176z" />
<glyph unicode="e" horiz-adv-x="1163" d="M126 578q0 147 39 261t107.5 192t163 118.5t205.5 40.5q108 0 190.5 -37t138.5 -104.5t85 -162t29 -210.5q0 -24 -2 -51t-6 -58h-760q0 -99 16 -180.5t56 -139t106.5 -89t167.5 -31.5q169 0 306 117l62 -145q-38 -28 -88.5 -50.5t-103 -38.5t-102 -24.5t-86.5 -8.5 q-126 0 -223.5 41.5t-164.5 119.5t-101.5 189.5t-34.5 250.5zM316 682h600v35q0 110 -27.5 177t-68.5 103t-89 48t-89 12q-32 0 -68 -5.5t-72.5 -20.5t-70 -41.5t-59 -68.5t-41 -100.5t-15.5 -138.5z" />
<glyph unicode="f" horiz-adv-x="825" d="M66 1064v105h195v29q0 140 23.5 229.5t67 141t104.5 71t136 19.5q44 0 87.5 -13.5t78 -30t55.5 -31.5t21 -17l-63 -125q-83 74 -155 74q-48 0 -79.5 -7.5t-50.5 -29.5t-27 -61t-8 -102v-73v-74h348v-105h-348v-1064h-190v1064h-195z" />
<glyph unicode="g" horiz-adv-x="1258" d="M167 -95q0 38 11 73.5t32.5 65t53 51.5t71.5 33q-77 13 -102 68q-24 41 -26 55l-19 135q0 45 12 74.5t33 48t50.5 28.5t65.5 17l48 16q-53 18 -93 46.5t-66.5 65t-40 79t-13.5 88.5q0 116 92 226q95 114 368 115h3q156 0 250 -76l79 39q43 20 196 20h30v-148h-238l30 -30 q18 -27 28 -40.5t15.5 -26t6.5 -31t1 -57.5q0 -309 -357 -358l-355 -55l19 -167h337q138 0 232.5 -21.5t153 -64.5t84 -107.5t25.5 -150.5q0 -164 -147 -260q-49 -32 -90.5 -50t-82.5 -26t-84 -9.5t-94 -1.5h-61q-32 0 -66 1q-137 1 -258 78q-134 83 -134 257zM325 -65 q0 -60 16.5 -100.5t45.5 -65t69.5 -35.5t87.5 -11h217q55 0 102.5 12t82.5 36.5t55.5 62t20.5 88.5q0 50 -13.5 88.5t-47 64t-90.5 38.5t-144 13h-305q-97 -73 -97 -191zM344 845q0 -121 139 -217l23 -15q10 -6 20 -11l21 -10l125 21q154 22 181 96q27 75 27 169 q0 46 -12 80t-40.5 56t-74.5 33t-113 11q-296 0 -296 -213z" />
<glyph unicode="h" horiz-adv-x="1305" d="M166 0v1579l190 37v-627q36 38 75.5 74.5t85.5 64.5t99 45t115 17q95 0 172.5 -23.5t133 -78t86 -143t30.5 -218.5v-727h-190v727q0 88 -15.5 149t-45 99t-73 55t-98.5 17q-67 0 -128.5 -19t-111.5 -44.5t-85 -52.5t-50 -43v-888h-190z" />
<glyph unicode="i" horiz-adv-x="592" d="M206 1462q0 23 8 44t23 36.5t35.5 25t45.5 9.5q48 0 78 -33.5t30 -81.5t-30 -81.5t-78 -33.5q-25 0 -45.5 9t-35.5 25t-23 37t-8 44zM223 0v1169h182v-1169h-182z" />
<glyph unicode="j" horiz-adv-x="604" d="M36 -258q67 43 105 90t56.5 100.5t22.5 114t4 129.5v993h190v-1015q0 -116 -27 -206.5t-72.5 -156.5t-105.5 -107t-126 -57zM206 1462q0 23 8 44t23 36.5t35.5 25t45.5 9.5q48 0 78 -33.5t30 -81.5t-30 -81.5t-78 -33.5q-25 0 -45.5 9t-35.5 25t-23 37t-8 44z" />
<glyph unicode="k" horiz-adv-x="1221" d="M204 0v1579l190 35v-987l559 542h225l-553 -521l586 -648h-221l-480 555l-116 -96v-459h-190z" />
<glyph unicode="l" horiz-adv-x="590" d="M200 0v1579l190 35v-1614h-190z" />
<glyph unicode="m" horiz-adv-x="1974" d="M166 0v1169h141l27 -206q30 48 71.5 89.5t91.5 72t108.5 48t121.5 17.5q66 0 118.5 -17.5t92.5 -48t67.5 -71t42.5 -86.5q35 51 83 92t103.5 70.5t115 45t118.5 15.5q85 0 151.5 -30.5t112 -86t69 -133.5t23.5 -174v-766h-190v768q0 85 -14 139.5t-39.5 85.5t-61 42.5 t-79.5 11.5q-181 0 -362 -189v-858h-190v768q0 84 -13 138t-37.5 85.5t-60.5 43.5t-81 12q-153 0 -340 -187v-860h-190z" />
<glyph unicode="n" horiz-adv-x="1300" d="M166 0v1169h140l24 -187q30 38 80.5 75t111 66t127.5 47t130 18q37 0 79.5 -7t83.5 -25.5t78.5 -51t66.5 -83.5t46 -123.5t17 -170.5v-727h-190v727q0 70 -10.5 129t-36 101.5t-69 66t-108.5 23.5q-49 0 -107 -18.5t-111.5 -45t-97 -55t-64.5 -48.5v-880h-190z" />
<glyph unicode="o" d="M126 582q0 126 32.5 236.5t98.5 193t165.5 130.5t233.5 48q136 0 236 -48.5t165.5 -131.5t97.5 -193.5t32 -234.5q0 -126 -32.5 -235.5t-98.5 -191t-165.5 -128.5t-234.5 -47q-136 0 -235.5 47.5t-165 129.5t-97.5 191.5t-32 233.5zM308 582q0 -98 19 -183t60.5 -147.5 t107.5 -98.5t161 -36q96 0 162.5 36.5t108 99.5t59.5 147.5t18 181.5q0 99 -19 184.5t-61 149t-108 99.5t-160 36q-72 0 -127 -21t-94.5 -58.5t-65.5 -89.5t-41 -114q-20 -88 -20 -186z" />
<glyph unicode="p" horiz-adv-x="1310" d="M166 -487v1656h141l33 -198q33 44 74.5 83.5t89.5 69.5t101 48t109 18q94 0 165.5 -27.5t123.5 -74.5t87 -108.5t56 -128.5t29.5 -136t8.5 -131q0 -114 -26.5 -222.5t-83.5 -193.5t-146 -136.5t-213 -51.5q-53 0 -104.5 14.5t-97.5 39.5t-86 58.5t-71 71.5v-629zM356 285 q4 -5 20 -19t40.5 -32t56 -37.5t68 -36t76 -27t79.5 -10.5q31 0 71 5.5t79 27.5t73 66t54 121q29 110 29 200q0 52 -4 110t-15 114t-31 106.5t-52 89.5t-77.5 61.5t-107.5 22.5q-61 0 -120 -20t-108.5 -46t-84 -52t-46.5 -39v-605z" />
<glyph unicode="q" horiz-adv-x="1309" d="M126 584q0 117 25 226t80.5 193.5t143 135.5t212.5 51q57 0 113 -18t106 -48t92.5 -69.5t71.5 -83.5l34 198h139v-1648l-190 -23v666q-30 -38 -69.5 -71.5t-85.5 -58.5t-96.5 -39.5t-104.5 -14.5q-127 0 -216.5 52t-146 137t-82.5 193.5t-26 221.5zM308 584 q0 -101 13.5 -174t35.5 -124t51.5 -83t61.5 -50t65 -24t62 -6q53 0 107.5 14.5t102.5 36.5t86.5 47.5t59.5 46.5v623q-34 34 -80.5 62.5t-97 49.5t-99.5 32.5t-89 11.5q-279 0 -279 -463z" />
<glyph unicode="r" horiz-adv-x="885" d="M195 0v1169h143l30 -192q163 213 322 213q59 0 100 -12v-152q-4 4 -62 4q-42 0 -82 -9t-77 -23t-69 -30.5t-56 -31.5t-39.5 -26.5t-19.5 -15.5v-894h-190z" />
<glyph unicode="s" horiz-adv-x="1072" d="M122 891q0 45 19 97t65 96.5t122.5 74t190.5 31.5q53 0 111.5 -12.5t111.5 -31.5t95.5 -40t63.5 -39l-62 -143q-149 118 -309 118q-68 0 -115 -12t-76.5 -33.5t-43 -51t-13.5 -65.5q0 -23 7 -42t25 -35.5t50 -32t82 -33.5l168 -59q107 -38 173.5 -77.5t103.5 -84.5 t50 -96t13 -111q0 -96 -40.5 -160t-103.5 -102t-141 -54t-153 -16q-49 0 -106 11.5t-110 29t-98 39.5t-70 43l64 145q31 -26 70.5 -48t81 -37.5t82 -24t73.5 -8.5q60 0 111.5 11t88.5 34t58 58.5t21 83.5q0 40 -12 69t-36 51t-60 38.5t-83 32.5l-174 57q-90 30 -147.5 62.5 t-90.5 72t-45 87t-12 107.5z" />
<glyph unicode="t" horiz-adv-x="848" d="M44 1065v104h183l28 361l162 46v-407h333v-104h-333v-767q0 -51 6 -83.5t18 -51t30.5 -25.5t43.5 -7q78 0 188 65l38 21l67 -123l-47 -30q-4 -3 -28 -15.5t-59.5 -27t-78.5 -26t-84 -11.5q-78 0 -132 20t-87.5 63.5t-49 113t-15.5 169.5v715h-183z" />
<glyph unicode="u" horiz-adv-x="1282" d="M150 442v727h190v-727q0 -77 12.5 -136.5t40 -100t72 -61.5t107.5 -21q194 0 354 151v895h190v-1169h-141l-27 176q-90 -101 -183 -148.5t-203 -47.5q-96 0 -172.5 26.5t-130 83t-81.5 143.5t-28 209z" />
<glyph unicode="v" horiz-adv-x="1160" d="M58 1169h188l336 -970l330 970h190l-430 -1169h-186z" />
<glyph unicode="w" horiz-adv-x="1686" d="M53 1169h184l247 -1045l258 1045h219l250 -1047l228 1047h186l-310 -1169h-213l-251 995l-259 -995h-215z" />
<glyph unicode="x" horiz-adv-x="1177" d="M90 1169h216l282 -467l290 467h210l-406 -585l398 -584h-204l-282 477l-288 -477h-212l408 584z" />
<glyph unicode="y" horiz-adv-x="1189" d="M83 1169h182l355 -920l301 920h195l-437 -1206l-39 -108q-16 -41 -24 -58q-61 -133 -153.5 -194.5t-217.5 -61.5l-51 125q150 25 217 95q66 69 123 262z" />
<glyph unicode="z" horiz-adv-x="1008" d="M102 0v166l638 863h-608v140h772v-165l-626 -859h626v-145h-802z" />
<glyph unicode="{" horiz-adv-x="823" d="M75 571v188q238 0 238 308q0 117 23.5 205.5t73.5 148t127.5 89t184.5 29.5l1 -169q-31 0 -56 -1.5t-46 -6.5t-39 -15t-36 -26q-17 -16 -27.5 -40.5t-21.5 -69.5q-6 -22 -10 -64t-4 -105q0 -314 -241 -377q241 -63 241 -377q1 -63 4 -102.5t8 -65t11 -40.5l13 -31 q13 -31 33.5 -48.5t46.5 -26.5t57.5 -11.5t66.5 -2.5l-1 -169q-107 0 -184.5 29.5t-127.5 89t-73.5 148t-23.5 205.5q0 308 -238 308z" />
<glyph unicode="|" horiz-adv-x="625" d="M224 -111v1807h178v-1807h-178z" />
<glyph unicode="}" horiz-adv-x="827" d="M130 -40q35 0 66 2.5t57.5 11.5t47 26.5t33.5 48.5l12 31q6 15 11 40.5t8.5 65t4.5 102.5q0 314 241 377q-241 63 -241 377q0 63 -4.5 105t-9.5 64q-12 45 -22 69.5t-27 40.5q-18 16 -36 26t-39 15t-46 6.5t-56 1.5l1 169q107 0 184.5 -30t127.5 -89.5t73.5 -147.5 t23.5 -205q0 -308 238 -308v-188q-238 0 -238 -308q0 -117 -23.5 -205t-73.5 -147.5t-127.5 -89.5t-184.5 -30z" />
<glyph unicode="~" horiz-adv-x="899" d="M93 394q0 260 201 260q56 0 102.5 -19.5t88.5 -42.5l78 -43q37 -20 75 -20q59 0 59 111h156q0 -57 -13.5 -103t-38.5 -78.5t-60.5 -50.5t-79.5 -18q-56 0 -108 18.5t-97 41.5l-83 41q-38 18 -65 18q-29 0 -44 -24.5t-15 -90.5h-156z" />
<glyph unicode="&#xa1;" horiz-adv-x="790" d="M293 1393v202h209v-202h-209zM343 0v1180h174v-1180h-174z" />
<glyph unicode="&#xa2;" horiz-adv-x="1138" d="M142 580q0 114 21 202.5t57 155t83.5 112t100 75t107 44.5t105.5 20v140h103v-143q54 0 110.5 -17t103 -37.5t77 -37.5t31.5 -17l-57 -133q-1 0 -23 14.5t-59 32t-84.5 32.5t-98.5 15v-908q53 0 101.5 11.5t85 26t57.5 25.5l21 12l46 -137q0 -2 -29.5 -16t-75 -29.5 t-100.5 -28.5t-106 -13v-140h-103v137q-50 3 -104.5 17t-107 42.5t-100 73.5t-83.5 111t-57.5 154.5t-21.5 203.5zM332 580q0 -120 23 -203t62 -136t90.5 -79.5t108.5 -32.5v908q-284 -38 -284 -457z" />
<glyph unicode="&#xa3;" horiz-adv-x="1128" d="M152 603v103h173q-2 0 -20.5 19t-39.5 53t-38.5 79.5t-17.5 98.5q0 76 31 142.5t83.5 116t122 78.5t145.5 29q68 0 125.5 -6.5t105 -16.5t84.5 -22t63 -23l31 -14q14 -6 22 -11q10 -5 17 -10l-50 -131l-18 9q-18 10 -50.5 24.5t-74.5 27.5t-90 22t-97 9q-268 0 -268 -221 q0 -109 85 -218l31 -35h428v-103h-428q0 -113 -18 -199.5t-39.5 -145.5t-40.5 -90.5t-21 -35.5h616v-132h-797v126l5 6q9 13 32 49t46 95t41 140.5t18 186.5h-197z" />
<glyph unicode="&#xa4;" horiz-adv-x="1366" d="M134 555l187 187q-68 103 -68 225q0 130 75 241l-194 194l124 124l194 -193q112 76 243 76q122 0 225 -68l186 185l124 -124l-187 -187q61 -97 61 -215q0 -131 -76 -243l202 -202l-124 -125l-203 203q-110 -75 -240 -75q-118 0 -216 61l-189 -189zM396 975 q0 -56 22.5 -106t60 -87.5t87.5 -60t104 -22.5q57 0 109.5 24.5t93 65t65 93.5t24.5 110q0 55 -22.5 105t-60 87.5t-87.5 59.5t-104 22q-116 0 -205 -89q-87 -89 -87 -202z" />
<glyph unicode="&#xa5;" horiz-adv-x="1277" d="M41 1579h194l420 -791l420 791h194l-481 -891h263v-104h-296v-96h296v-99h-296v-389h-190v389h-302v99h302v96h-302v104h261z" />
<glyph unicode="&#xa6;" horiz-adv-x="640" d="M249 0v690h188v-690h-188zM249 889v690h188v-690h-188z" />
<glyph unicode="&#xa7;" horiz-adv-x="1192" d="M225 771q0 30 11.5 65.5t40.5 68t78 57t125 33.5q-81 31 -130.5 63t-77.5 67.5t-37.5 75t-9.5 84.5q0 42 18.5 92t62 92.5t116 71t180.5 28.5q50 0 106 -12t106.5 -30t91 -38.5t58.5 -36.5l-58 -136q-66 51 -141 79.5t-153 28.5q-231 0 -231 -149q0 -23 6.5 -41t24 -33.5 t48 -30t77.5 -31.5l155 -56q109 -39 172.5 -79t96.5 -81t42.5 -85t9.5 -92q0 -44 -18 -83t-50.5 -69t-78.5 -49t-102 -23q83 -29 132.5 -65.5t76 -76.5t34.5 -81.5t8 -79.5q0 -92 -38.5 -152.5t-98.5 -96.5t-134 -51t-145 -15q-46 0 -100 11t-105 28t-93.5 37.5t-65.5 39.5 l61 138q29 -26 66 -46t76.5 -33.5t78 -21t70.5 -7.5q53 0 100 9t82.5 29.5t56 53.5t20.5 81q0 39 -12.5 67t-35.5 49t-57 36.5t-76 29.5l-160 54q-86 29 -140.5 60t-85.5 68.5t-42.5 82.5t-11.5 101zM379 753q0 -153 235 -153q118 0 178.5 39t60.5 112q0 55 -25 86 t-61.5 46.5t-78 19t-74.5 3.5q-125 0 -180 -39t-55 -114z" />
<glyph unicode="&#xa8;" horiz-adv-x="952" d="M121 496q0 23 8 44t23 36.5t35.5 25t45.5 9.5q48 0 78 -33.5t30 -81.5t-30 -81.5t-78 -33.5q-25 0 -45.5 9t-35.5 25t-23 37t-8 44zM611 496q0 23 8 44t23 36.5t35.5 25t45.5 9.5q48 0 78 -33.5t30 -81.5t-30 -81.5t-78 -33.5q-25 0 -45.5 9t-35.5 25t-23 37t-8 44z" />
<glyph unicode="&#xa9;" horiz-adv-x="2101" d="M164 830q0 131 35 245t97 209t146 170t181 127t203 79t213 27t213.5 -27.5t204 -79.5t181 -127t145 -170t96.5 -209t35 -244q-1 -128 -34 -241t-92.5 -207.5t-141.5 -170t-179 -127.5t-206 -79.5t-222 -27.5q-111 0 -219 27t-205.5 78t-180 125.5t-142.5 169.5t-94 208.5 t-34 244.5zM312 829q0 -152 52.5 -284.5t148 -231t229.5 -155.5t297 -57t297 57t229.5 155.5t148 231t52.5 284.5q0 113 -30 211.5t-81.5 180t-122 145t-151 107t-168 66.5t-174.5 23q-88 0 -176 -23t-169 -67t-150.5 -107.5t-121 -145t-81 -179.5t-29.5 -211zM554 831 q0 95 23 184t81.5 158t160 111t257.5 42q127 0 280 -78v-126q-151 76 -294 76q-87 0 -152 -17t-108 -59t-64.5 -113t-21.5 -178t21.5 -178t64.5 -113t108 -59t152 -17q143 0 294 76v-126q-153 -78 -280 -78q-156 0 -257.5 42t-160 111t-81.5 158t-23 184z" />
<glyph unicode="&#xaa;" horiz-adv-x="1186" d="M206 960q0 72 26 127.5t73.5 93.5t113.5 57.5t146 19.5q44 0 86 -5.5t75 -12t53 -13t20 -9.5v58q0 58 -6.5 102.5t-27 74.5t-58 45t-100.5 15q-60 0 -113.5 -11.5t-93.5 -25t-62.5 -24t-21.5 -9.5l-53 109q1 0 27 13t71 29.5t106 30t132 13.5q102 0 171 -22t111.5 -70.5 t60.5 -125t18 -185.5v-549h-116l-27 142q-1 0 -16 -25t-49 -55t-90 -55t-139 -25q-74 0 -132.5 19.5t-99.5 56.5t-63 91.5t-22 124.5zM270 446v129h684v-129h-684zM367 971q0 -53 10 -89t32.5 -58.5t59.5 -32.5t92 -10q56 0 101 19t76 42t46.5 42t14.5 19v238 q-51 8 -95 12.5t-81 4.5q-256 0 -256 -187z" />
<glyph unicode="&#xab;" horiz-adv-x="1533" d="M150 481v185l608 383v-207l-436 -265l436 -271v-207zM758 481v185l608 383v-207l-437 -265l437 -271v-207z" />
<glyph unicode="&#xac;" horiz-adv-x="1724" d="M94 1023v151h1354v-836h-176v685h-1178z" />
<glyph unicode="&#xad;" horiz-adv-x="864" d="M154 508v131h468v-131h-468z" />
<glyph unicode="&#xae;" horiz-adv-x="1334" d="M102 1108q0 116 45 219t124 180t186.5 122t233.5 45q124 0 231.5 -44t187 -120.5t125.5 -180t46 -221.5t-45.5 -221.5t-125 -180t-187.5 -120.5t-232 -44q-126 0 -234 44.5t-187 121.5t-123.5 180t-44.5 220zM210 1105q0 -98 36 -183t100.5 -147.5t152 -98t191.5 -35.5 t192.5 36.5t153 99.5t101 147.5t36.5 181.5q0 99 -37 184t-102 148t-153.5 98.5t-190.5 35.5q-103 0 -190.5 -36t-152 -98.5t-101 -148t-36.5 -184.5zM511 807v601h120q47 0 84 -3t66.5 -10t53 -19.5t44.5 -31.5q41 -38 41 -83q0 -36 -7.5 -63.5t-26.5 -48t-51 -36 t-81 -27.5l180 -250q-10 -3 -28 -13l-45 -24l-27 -14q-172 281 -174 283h-43v-261h-106zM620 1150h48q73 0 110.5 23t37.5 83q0 17 -7.5 30t-29 22t-60 13.5t-99.5 4.5v-176z" />
<glyph unicode="&#xaf;" horiz-adv-x="1003" d="M98 98v117h682v-117h-682z" />
<glyph unicode="&#xb0;" horiz-adv-x="780" d="M143 899q0 52 18 96t50.5 76t77.5 50t98 18q52 0 95.5 -18t74.5 -50.5t48.5 -76.5t17.5 -95t-17 -95t-48 -76t-74.5 -50t-96.5 -18q-54 0 -99 18.5t-77.5 50.5t-50 75.5t-17.5 94.5zM240 899q0 -31 11.5 -58t31 -47.5t46 -32t56.5 -11.5q31 0 57 11.5t45 32t29 47.5 t10 58t-10 58.5t-29 47.5t-45 31.5t-57 11.5q-32 0 -58.5 -12t-45.5 -32t-30 -47.5t-11 -57.5z" />
<glyph unicode="&#xb1;" horiz-adv-x="1143" d="M206 578v133h313v344h141v-344h314v-133h-314v-344h-141v344h-313zM240 -55v139h701v-139h-701z" />
<glyph unicode="&#xb2;" horiz-adv-x="1126" d="M253 668v137l271 240q68 60 111.5 103t68 77t34 64t9.5 65q0 70 -52 105.5t-137 35.5q-39 0 -88.5 -8.5t-94 -18t-74.5 -17.5l-31 -8v145l23 8q22 8 62.5 17t96.5 17t124 8q100 0 166 -28t105.5 -70t55.5 -91.5t16 -91.5q0 -48 -12 -90.5t-40 -86t-74.5 -91.5 t-116.5 -107l-191 -162h406v-152h-638z" />
<glyph unicode="&#xb3;" horiz-adv-x="1208" d="M300 618l51 127l22 -11q23 -11 61 -25t89 -25.5t108 -11.5q48 1 88.5 14t70 36.5t45.5 56.5t16 74q0 92 -64.5 148t-197.5 71v135q46 0 89.5 10.5t77 32t54.5 55t22 78.5q0 75 -54.5 116.5t-169.5 41.5q-29 0 -59.5 -4.5t-58 -11t-51 -14t-36.5 -13.5l-29 -14l-47 127 q2 1 25.5 11.5t62.5 22.5t90 22t108 10q37 0 79 -5.5t83.5 -18t79.5 -33.5t67 -52.5t46.5 -74.5t17.5 -99q-1 -70 -29 -118t-66.5 -78t-80 -43t-69.5 -13q25 -5 55 -14.5t60.5 -25t59 -39t51 -56t36 -75t14.5 -97.5q0 -77 -35 -133t-91 -92t-125.5 -53t-137.5 -17 q-167 0 -314 70q-14 6 -14 8z" />
<glyph unicode="&#xb4;" horiz-adv-x="1097" d="M489 354l159 611l232 -91l-334 -546z" />
<glyph unicode="&#xb5;" horiz-adv-x="1328" d="M185 -291v1460h174v-727q0 -319 252 -319q70 0 129 19t104.5 44.5t74.5 50.5t39 37v895h208v-1153h-146l-24 154q-171 -190 -397 -190q-46 0 -83.5 13.5t-67 32.5t-49.5 39.5t-30 34.5l-10 13v-404h-174z" />
<glyph unicode="&#xb6;" horiz-adv-x="1314" d="M128 1250q0 71 20.5 123t57 88t86.5 58.5t109.5 35.5t125.5 17.5t135 5.5h466v-1578h-186v1428h-135v-1428h-190v905q-94 0 -182 16t-156.5 55.5t-109.5 106t-41 167.5z" />
<glyph unicode="&#xb7;" horiz-adv-x="518" d="M133 650q0 23 8 44t23 36.5t35.5 25t45.5 9.5q48 0 78 -33.5t30 -81.5t-30 -81.5t-78 -33.5q-25 0 -45.5 9t-35.5 25t-23 37t-8 44z" />
<glyph unicode="&#xb8;" horiz-adv-x="575" d="M136 -423q-2 0 18.5 -6.5t49 -14t56.5 -14t40 -6.5q34 0 59.5 4t42.5 18t26 41t11 73q0 39 -14.5 66.5t-45 44t-78.5 24t-115 7.5v262h121v-174q61 0 110 -12.5t83.5 -41t53 -75t18.5 -115.5q0 -236 -252 -236q-27 0 -55 4.5t-52 10.5t-43 12l-28 9l-6 2v117z" />
<glyph unicode="&#xb9;" horiz-adv-x="740" d="M119 1345l237 95l140 -26v-936h-169v826l-171 -72z" />
<glyph unicode="&#xba;" horiz-adv-x="1276" d="M214 1152q0 99 25.5 187t78 154.5t132 105.5t188.5 39t189 -39t132.5 -105.5t78 -154.5t25.5 -187q0 -100 -25.5 -187.5t-78 -153t-132.5 -103.5t-189 -38q-108 0 -187.5 37.5t-132 102.5t-78.5 153t-26 189zM300 446v129h684v-129h-684zM371 1154q0 -77 15 -142.5 t47 -113t82.5 -74.5t122.5 -27t122.5 26.5t82.5 74t47 113t15 143.5q0 76 -15 141.5t-47 113.5t-82.5 75.5t-122.5 27.5t-122.5 -27t-82.5 -75t-47 -113.5t-15 -142.5z" />
<glyph unicode="&#xbb;" horiz-adv-x="1533" d="M167 99v207l447 271l-447 265v207l609 -383v-185zM774 99v207l447 271l-447 265v207l609 -383v-185z" />
<glyph unicode="&#xbc;" horiz-adv-x="1816" d="M137 1434l238 95l130 -26v-935h-160v845l-170 -72zM233 -30l1039 1395l122 -93l-1041 -1395zM838 144l564 802l128 -31v-770h151v-111h-151v-261l-145 -23v284h-525zM997 144h388v559l-122 -189z" />
<glyph unicode="&#xbd;" horiz-adv-x="2068" d="M193 1434l238 95l130 -26v-935h-160v845l-170 -72zM263 -30l1039 1395l122 -93l-1041 -1395zM1203 -35l271 240q68 60 111.5 103t68 77t34 64t9.5 65q0 70 -52 105.5t-137 35.5q-39 0 -88.5 -8.5t-94 -18t-74.5 -17.5l-31 -8v145l23 8q22 8 62.5 17t96.5 17t124 8 q100 0 166 -28t105.5 -70t55.5 -91.5t16 -91.5q0 -48 -12 -90.5t-40 -86t-74.5 -91.5t-116.5 -107l-191 -162h406v-152h-638v137z" />
<glyph unicode="&#xbe;" horiz-adv-x="2159" d="M191 618l51 127l22 -11q23 -11 61 -25t89 -25.5t108 -11.5q48 1 88.5 14t70 36.5t45.5 56.5t16 74q0 92 -64.5 148t-197.5 71v135q46 0 89.5 10.5t77 32t54.5 55t22 78.5q0 75 -54.5 116.5t-169.5 41.5q-29 0 -59.5 -4.5t-58 -11t-51 -14t-36.5 -13.5l-29 -14l-47 127 q2 1 25.5 11.5t62.5 22.5t90 22t108 10q37 0 79 -5.5t83.5 -18t79.5 -33.5t67 -52.5t46.5 -74.5t17.5 -99q-1 -70 -29 -118t-66.5 -78t-80 -43t-69.5 -13q25 -5 55 -14.5t60.5 -25t59 -39t51 -56t36 -75t14.5 -97.5q0 -77 -35 -133t-91 -92t-125.5 -53t-137.5 -17h-12 q-47 0 -91 7q-49 8 -90.5 19t-72 23.5t-46.5 20.5zM539 -30l1030 1395l131 -93l-1041 -1395zM1144 144l564 802l128 -31v-770h151v-111h-151v-261l-145 -23v284h-525zM1303 144h388v559l-122 -189z" />
<glyph unicode="&#xbf;" horiz-adv-x="1232" d="M204 249q0 88 25.5 157t68 123.5t98 95t115 71.5t118.5 54l109 40v383h180v-485q-132 -46 -229 -89t-161.5 -91.5t-97.5 -106.5t-35 -133q0 -62 18 -104t55.5 -68t96.5 -37.5t141 -11.5q71 0 131.5 12.5t104 28.5t68 29.5t24.5 15.5l59 -143q0 1 -30.5 -15.5t-84.5 -36 t-128.5 -36t-162.5 -16.5q-103 0 -191 19.5t-153 63t-102 112.5t-37 168zM732 1401q0 22 8.5 41t22.5 33t33.5 22t40.5 8q22 0 41 -8.5t33 -23.5t22 -35t8 -43q0 -22 -9.5 -40t-24.5 -31t-34.5 -20.5t-39.5 -7.5q-21 0 -39 8.5t-32 23t-22 33.5t-8 40z" />
<glyph unicode="&#xc0;" horiz-adv-x="1536" d="M102 0l516 1579h300l516 -1579h-193l-123 383h-700l-123 -383h-193zM407 2287l242 89l153 -618l-67 -26zM451 485h634l-317 975z" />
<glyph unicode="&#xc1;" horiz-adv-x="1536" d="M102 0l516 1579h300l516 -1579h-193l-123 383h-700l-123 -383h-193zM451 485h634l-317 975zM740 1758l159 611l232 -91l-334 -546z" />
<glyph unicode="&#xc2;" horiz-adv-x="1536" d="M102 0l516 1579h300l516 -1579h-193l-123 383h-700l-123 -383h-193zM427 1840l292 501h96l292 -501l-128 -78l-212 377l-212 -377zM451 485h634l-317 975z" />
<glyph unicode="&#xc3;" horiz-adv-x="1536" d="M102 0l516 1579h300l516 -1579h-193l-123 383h-700l-123 -383h-193zM388 1736q0 260 201 260q56 0 102.5 -19.5t88.5 -42.5l78 -43q37 -20 75 -20q59 0 59 111h156q0 -57 -13.5 -103t-38.5 -78.5t-60.5 -50.5t-79.5 -18q-56 0 -108 18.5t-97 41.5l-83 41q-38 18 -65 18 q-29 0 -44 -24.5t-15 -90.5h-156zM451 485h634l-317 975z" />
<glyph unicode="&#xc4;" horiz-adv-x="1536" d="M102 0l516 1579h300l516 -1579h-193l-123 383h-700l-123 -383h-193zM413 1847q0 23 8 44t23 36.5t35.5 25t45.5 9.5q48 0 78 -33.5t30 -81.5t-30 -81.5t-78 -33.5q-25 0 -45.5 9t-35.5 25t-23 37t-8 44zM451 485h634l-317 975zM903 1847q0 23 8 44t23 36.5t35.5 25 t45.5 9.5q48 0 78 -33.5t30 -81.5t-30 -81.5t-78 -33.5q-25 0 -45.5 9t-35.5 25t-23 37t-8 44z" />
<glyph unicode="&#xc5;" horiz-adv-x="1536" d="M102 0l516 1578q-45 40 -68 85t-23 106q0 52 18 96t50.5 76t77.5 50t98 18q52 0 95.5 -18t74.5 -50.5t48.5 -76.5t17.5 -95q0 -59 -22 -109t-66 -83l515 -1577h-193l-123 383h-700l-123 -383h-193zM451 485h634l-317 975zM624 1769q0 -31 11.5 -58t31 -47.5t46 -32 t56.5 -11.5q31 0 57 11.5t45 32t29 47.5t10 58t-10 58t-29 47t-45 32t-57 12q-32 0 -58.5 -12t-45.5 -32t-30 -47.5t-11 -57.5z" />
<glyph unicode="&#xc6;" horiz-adv-x="1873" d="M53 0l826 1579h938v-143h-648v-545h605v-127h-603v-621h674v-143h-839v371h-552l-192 -371h-209zM514 493h490v966z" />
<glyph unicode="&#xc7;" horiz-adv-x="1267" d="M129 788q0 138 19 246t52 192t78 145t97 103.5t109 69t113.5 41.5t110.5 20t101 5q66 0 113.5 -5.5t83.5 -14t64 -17.5l55 -17l86 -26l-45 -145l-77 27q-32 11 -62.5 19.5t-64 14.5t-71 9t-82.5 3q-134 0 -226 -47t-148 -134.5t-80.5 -212.5t-24.5 -280 q0 -194 35.5 -323.5t99 -207t151.5 -110t193 -32.5q30 0 62 5t63 12.5t60 17t54 18.5q16 6 35.5 12.5t26.5 12.5l73 29l56 -139l-69 -28l-9 -4l-24 -11l-31 -14q-16 -7 -29 -11q-22 -8 -53 -17t-68.5 -17t-80 -13t-86.5 -5q-134 0 -234.5 34t-174 93t-122 139t-77 172 t-40.5 192t-12 199zM678 -518q-2 0 18.5 -6.5t49 -14t56.5 -14t40 -6.5q34 0 59.5 4t42.5 18t26 41t11 73q0 39 -14.5 66.5t-45 44t-78.5 24t-115 7.5v262h121v-174q61 0 110 -12.5t83.5 -41t53 -75t18.5 -115.5q0 -236 -252 -236q-27 0 -55 4.5t-52 10.5t-43 12l-28 9l-6 2 v117z" />
<glyph unicode="&#xc8;" horiz-adv-x="1183" d="M146 0v1579h970v-143h-776v-545h678v-115h-678v-633h789v-143h-983zM270 2287l242 89l153 -618l-67 -26z" />
<glyph unicode="&#xc9;" horiz-adv-x="1183" d="M146 0v1579h970v-143h-776v-545h678v-115h-678v-633h789v-143h-983zM603 1758l159 611l232 -91l-334 -546z" />
<glyph unicode="&#xca;" horiz-adv-x="1183" d="M146 0v1579h970v-143h-776v-545h678v-115h-678v-633h789v-143h-983zM290 1840l292 501h96l292 -501l-128 -78l-212 377l-212 -377z" />
<glyph unicode="&#xcb;" horiz-adv-x="1183" d="M146 0v1579h970v-143h-776v-545h678v-115h-678v-633h789v-143h-983zM276 1847q0 23 8 44t23 36.5t35.5 25t45.5 9.5q48 0 78 -33.5t30 -81.5t-30 -81.5t-78 -33.5q-25 0 -45.5 9t-35.5 25t-23 37t-8 44zM766 1847q0 23 8 44t23 36.5t35.5 25t45.5 9.5q48 0 78 -33.5 t30 -81.5t-30 -81.5t-78 -33.5q-25 0 -45.5 9t-35.5 25t-23 37t-8 44z" />
<glyph unicode="&#xcc;" horiz-adv-x="983" d="M141 2287l242 89l153 -618l-67 -26zM195 0v112h204v1349h-204v118h593v-118h-206v-1349h206v-112h-593z" />
<glyph unicode="&#xcd;" horiz-adv-x="983" d="M195 0v112h204v1349h-204v118h593v-118h-206v-1349h206v-112h-593zM424 1758l159 611l232 -91l-334 -546z" />
<glyph unicode="&#xce;" horiz-adv-x="983" d="M151 1840l292 501h96l292 -501l-128 -78l-212 373l-212 -373zM195 0v112h204v1349h-204v118h593v-118h-206v-1349h206v-112h-593z" />
<glyph unicode="&#xcf;" horiz-adv-x="983" d="M140 1847q0 23 8 44t23 36.5t35.5 25t45.5 9.5q48 0 78 -33.5t30 -81.5t-30 -81.5t-78 -33.5q-25 0 -45.5 9t-35.5 25t-23 37t-8 44zM195 0v112h204v1349h-204v118h593v-118h-206v-1349h206v-112h-593zM630 1847q0 23 8 44t23 36.5t35.5 25t45.5 9.5q48 0 78 -33.5 t30 -81.5t-30 -81.5t-78 -33.5q-25 0 -45.5 9t-35.5 25t-23 37t-8 44z" />
<glyph unicode="&#xd0;" horiz-adv-x="1491" d="M-6 764v131h590v-131h-590zM156 0v1579h553q337 -7 498 -206.5t161 -584.5q0 -788 -659 -788h-553zM350 143h359q138 0 227 49t140 135.5t71 205t20 256.5q0 143 -21.5 262t-74 204.5t-140.5 133t-222 47.5h-359v-1293z" />
<glyph unicode="&#xd1;" horiz-adv-x="1665" d="M206 0v1579h262l829 -1434v1434h162v-1579h-262l-829 1434v-1434h-162zM453 1736q0 260 201 260q56 0 102.5 -19.5t88.5 -42.5l78 -43q37 -20 75 -20q59 0 59 111h156q0 -57 -13.5 -103t-38.5 -78.5t-60.5 -50.5t-79.5 -18q-56 0 -108 18.5t-97 41.5l-83 41 q-38 18 -65 18q-29 0 -44 -24.5t-15 -90.5h-156z" />
<glyph unicode="&#xd2;" horiz-adv-x="1558" d="M124 784q0 179 30.5 310t81.5 222.5t117 149t137 89.5t142 43.5t132 11.5q124 0 222 -28t172.5 -80t126.5 -126.5t85.5 -166t48.5 -199t15 -226.5q0 -176 -34.5 -326.5t-112 -261.5t-203 -174t-306.5 -63q-64 0 -137 10.5t-146 41.5t-140 87.5t-118.5 148t-82 223.5 t-30.5 314zM324 784q0 -187 32.5 -315.5t93 -208t146.5 -114.5t193 -35q93 0 162 27t118.5 75t81.5 112.5t50.5 139t25.5 156.5t7 163q0 189 -32 318t-91 208t-143 113.5t-188 34.5q-136 0 -224.5 -53t-140 -144.5t-71.5 -214.5t-20 -262zM402 2287l242 89l153 -618l-67 -26 z" />
<glyph unicode="&#xd3;" horiz-adv-x="1558" d="M124 784q0 179 30.5 310t81.5 222.5t117 149t137 89.5t142 43.5t132 11.5q124 0 222 -28t172.5 -80t126.5 -126.5t85.5 -166t48.5 -199t15 -226.5q0 -176 -34.5 -326.5t-112 -261.5t-203 -174t-306.5 -63q-64 0 -137 10.5t-146 41.5t-140 87.5t-118.5 148t-82 223.5 t-30.5 314zM324 784q0 -187 32.5 -315.5t93 -208t146.5 -114.5t193 -35q93 0 162 27t118.5 75t81.5 112.5t50.5 139t25.5 156.5t7 163q0 189 -32 318t-91 208t-143 113.5t-188 34.5q-136 0 -224.5 -53t-140 -144.5t-71.5 -214.5t-20 -262zM735 1758l159 611l232 -91 l-334 -546z" />
<glyph unicode="&#xd4;" horiz-adv-x="1558" d="M124 784q0 179 30.5 310t81.5 222.5t117 149t137 89.5t142 43.5t132 11.5q124 0 222 -28t172.5 -80t126.5 -126.5t85.5 -166t48.5 -199t15 -226.5q0 -176 -34.5 -326.5t-112 -261.5t-203 -174t-306.5 -63q-64 0 -137 10.5t-146 41.5t-140 87.5t-118.5 148t-82 223.5 t-30.5 314zM324 784q0 -187 32.5 -315.5t93 -208t146.5 -114.5t193 -35q93 0 162 27t118.5 75t81.5 112.5t50.5 139t25.5 156.5t7 163q0 189 -32 318t-91 208t-143 113.5t-188 34.5q-136 0 -224.5 -53t-140 -144.5t-71.5 -214.5t-20 -262zM424 1840l292 501h96l292 -501 l-128 -78l-212 377l-212 -377z" />
<glyph unicode="&#xd5;" horiz-adv-x="1558" d="M124 784q0 179 30.5 310t81.5 222.5t117 149t137 89.5t142 43.5t132 11.5q124 0 222 -28t172.5 -80t126.5 -126.5t85.5 -166t48.5 -199t15 -226.5q0 -176 -34.5 -326.5t-112 -261.5t-203 -174t-306.5 -63q-64 0 -137 10.5t-146 41.5t-140 87.5t-118.5 148t-82 223.5 t-30.5 314zM324 784q0 -187 32.5 -315.5t93 -208t146.5 -114.5t193 -35q93 0 162 27t118.5 75t81.5 112.5t50.5 139t25.5 156.5t7 163q0 189 -32 318t-91 208t-143 113.5t-188 34.5q-136 0 -224.5 -53t-140 -144.5t-71.5 -214.5t-20 -262zM384 1736q0 260 201 260 q56 0 102.5 -19.5t88.5 -42.5l78 -43q37 -20 75 -20q59 0 59 111h156q0 -57 -13.5 -103t-38.5 -78.5t-60.5 -50.5t-79.5 -18q-56 0 -108 18.5t-97 41.5l-83 41q-38 18 -65 18q-29 0 -44 -24.5t-15 -90.5h-156z" />
<glyph unicode="&#xd6;" horiz-adv-x="1558" d="M124 784q0 179 30.5 310t81.5 222.5t117 149t137 89.5t142 43.5t132 11.5q124 0 222 -28t172.5 -80t126.5 -126.5t85.5 -166t48.5 -199t15 -226.5q0 -176 -34.5 -326.5t-112 -261.5t-203 -174t-306.5 -63q-64 0 -137 10.5t-146 41.5t-140 87.5t-118.5 148t-82 223.5 t-30.5 314zM324 784q0 -187 32.5 -315.5t93 -208t146.5 -114.5t193 -35q93 0 162 27t118.5 75t81.5 112.5t50.5 139t25.5 156.5t7 163q0 189 -32 318t-91 208t-143 113.5t-188 34.5q-136 0 -224.5 -53t-140 -144.5t-71.5 -214.5t-20 -262zM409 1847q0 23 8 44t23 36.5 t35.5 25t45.5 9.5q48 0 78 -33.5t30 -81.5t-30 -81.5t-78 -33.5q-25 0 -45.5 9t-35.5 25t-23 37t-8 44zM899 1847q0 23 8 44t23 36.5t35.5 25t45.5 9.5q48 0 78 -33.5t30 -81.5t-30 -81.5t-78 -33.5q-25 0 -45.5 9t-35.5 25t-23 37t-8 44z" />
<glyph unicode="&#xd7;" horiz-adv-x="1365" d="M278 229l317 317l-317 317l102 102l317 -317l317 317l102 -102l-317 -317l317 -317l-102 -102l-317 317l-317 -317z" />
<glyph unicode="&#xd8;" horiz-adv-x="1557" d="M123 784q0 181 31.5 312.5t83 223.5t118.5 148.5t138 88t141.5 42.5t128.5 11q124 0 221.5 -28t172 -80.5t127 -126.5t85.5 -166t48.5 -199t15.5 -226q0 -117 -15 -223t-47.5 -198t-84 -166.5t-124.5 -127.5t-168.5 -81.5t-216.5 -28.5q-62 0 -134.5 10t-145 40.5 t-140.5 86.5t-120 147.5t-83.5 224t-31.5 316.5zM324 784q0 -184 31.5 -312t91 -208.5t143.5 -116.5t189 -36q93 0 163 25.5t120 71.5t83.5 109t52.5 137.5t27 158.5t8 171q0 188 -31.5 317t-90.5 208.5t-143 114t-189 34.5q-90 0 -159 -24t-119.5 -67.5t-84.5 -104.5 t-54.5 -136t-29 -161.5t-8.5 -180.5zM349 -113l825 1823l101 -42l-825 -1827z" />
<glyph unicode="&#xd9;" horiz-adv-x="1664" d="M204 715v864h192v-868q0 -136 15.5 -234t43.5 -166t67.5 -109.5t87.5 -64t103.5 -30t116.5 -7.5q68 0 127 10t107.5 35t85.5 69t62.5 112t38.5 163t13 222v868h196v-864q0 -160 -28 -297.5t-99 -239t-193 -159.5t-310 -60q-168 0 -287 49.5t-194.5 145.5t-110 237 t-34.5 324zM436 2287l242 89l153 -618l-67 -26z" />
<glyph unicode="&#xda;" horiz-adv-x="1664" d="M204 715v864h192v-868q0 -136 15.5 -234t43.5 -166t67.5 -109.5t87.5 -64t103.5 -30t116.5 -7.5q68 0 127 10t107.5 35t85.5 69t62.5 112t38.5 163t13 222v868h196v-864q0 -160 -28 -297.5t-99 -239t-193 -159.5t-310 -60q-168 0 -287 49.5t-194.5 145.5t-110 237 t-34.5 324zM769 1758l159 611l232 -91l-334 -546z" />
<glyph unicode="&#xdb;" horiz-adv-x="1664" d="M204 715v864h192v-868q0 -136 15.5 -234t43.5 -166t67.5 -109.5t87.5 -64t103.5 -30t116.5 -7.5q68 0 127 10t107.5 35t85.5 69t62.5 112t38.5 163t13 222v868h196v-864q0 -160 -28 -297.5t-99 -239t-193 -159.5t-310 -60q-168 0 -287 49.5t-194.5 145.5t-110 237 t-34.5 324zM457 1840l292 501h96l292 -501l-128 -78l-212 377l-212 -377z" />
<glyph unicode="&#xdc;" horiz-adv-x="1664" d="M204 715v864h192v-868q0 -136 15.5 -234t43.5 -166t67.5 -109.5t87.5 -64t103.5 -30t116.5 -7.5q68 0 127 10t107.5 35t85.5 69t62.5 112t38.5 163t13 222v868h196v-864q0 -160 -28 -297.5t-99 -239t-193 -159.5t-310 -60q-168 0 -287 49.5t-194.5 145.5t-110 237 t-34.5 324zM483 1847q0 23 8 44t23 36.5t35.5 25t45.5 9.5q48 0 78 -33.5t30 -81.5t-30 -81.5t-78 -33.5q-25 0 -45.5 9t-35.5 25t-23 37t-8 44zM973 1847q0 23 8 44t23 36.5t35.5 25t45.5 9.5q48 0 78 -33.5t30 -81.5t-30 -81.5t-78 -33.5q-25 0 -45.5 9t-35.5 25t-23 37 t-8 44z" />
<glyph unicode="&#xdd;" horiz-adv-x="1272" d="M27 1579h197l354 -773l63 -129l413 902h191l-514 -1094v-485h-190v485zM578 1758l216 611l232 -91l-334 -546z" />
<glyph unicode="&#xde;" horiz-adv-x="1456" d="M156 0v1579h194v-135h197q143 0 250 -14.5t184.5 -42.5t128.5 -69t81 -93t42 -115.5t12 -136.5q0 -105 -34 -191.5t-117.5 -148t-225 -95.5t-356.5 -34h-162v-504h-194zM350 649h162q121 0 208.5 11t149 31t99.5 48t58.5 62.5t28 74t7.5 83.5q0 95 -20 159.5t-75.5 104 t-153.5 57.5t-255 20h-209v-651z" />
<glyph unicode="&#xdf;" horiz-adv-x="1407" d="M160 1046q0 135 25.5 235t81.5 166.5t145.5 99t217.5 32.5q493 0 493 -403q0 -69 -16 -127t-47 -101t-77 -70t-106 -34q94 0 172.5 -29.5t135.5 -86t88.5 -139.5t31.5 -190v-4q0 -104 -30.5 -183t-85 -137.5t-128 -97.5t-159.5 -62.5t-180.5 -33.5t-190.5 -10v156 q128 0 222 13.5t159.5 38.5t106.5 61t64.5 80t31.5 95.5t8 108.5v8q0 77 -30 140t-97.5 108t-177 69.5t-268.5 24.5h-51v131h24q201 12 269 29q44 12 74.5 32t49 52t27 76.5t8.5 105.5q0 68 -22 113.5t-63.5 72.5t-101 38.5t-134.5 11.5q-87 0 -141 -23.5t-84 -73.5 t-40 -129.5t-10 -191.5v-1002l-194 -22v997q0 14 -0.5 27.5t-0.5 27.5z" />
<glyph unicode="&#xe0;" horiz-adv-x="1249" d="M103 339v4q0 89 32 158.5t90 117t140 72t182 24.5q33 0 79.5 -4.5t94.5 -11.5t90.5 -16t66.5 -18v48q0 88 -10 151t-38.5 103.5t-79 60t-131.5 19.5q-77 0 -143.5 -17t-116.5 -38t-80.5 -40t-35.5 -24l-68 132l45 25q175 105 376 105q137 0 228 -27.5t145 -87.5 t76.5 -156t22.5 -233v-686h-140l-28 178q-146 -201 -405 -201q-93 0 -166 23.5t-123 69.5t-76.5 113.5t-26.5 155.5zM234 1867l242 89l153 -618l-67 -26zM294 347q0 -119 59.5 -173.5t188.5 -54.5q173 0 336 152v298q-128 21 -241 21t-178.5 -16t-100.5 -48 q-64 -58 -64 -179z" />
<glyph unicode="&#xe1;" horiz-adv-x="1249" d="M103 339v4q0 89 32 158.5t90 117t140 72t182 24.5q33 0 79.5 -4.5t94.5 -11.5t90.5 -16t66.5 -18v48q0 88 -10 151t-38.5 103.5t-79 60t-131.5 19.5q-77 0 -143.5 -17t-116.5 -38t-80.5 -40t-35.5 -24l-68 132l45 25q175 105 376 105q137 0 228 -27.5t145 -87.5 t76.5 -156t22.5 -233v-686h-140l-28 178q-146 -201 -405 -201q-93 0 -166 23.5t-123 69.5t-76.5 113.5t-26.5 155.5zM294 347q0 -119 59.5 -173.5t188.5 -54.5q173 0 336 152v298q-128 21 -241 21t-178.5 -16t-100.5 -48q-64 -58 -64 -179zM567 1338l159 611l232 -91 l-334 -546z" />
<glyph unicode="&#xe2;" horiz-adv-x="1249" d="M103 339v4q0 89 32 158.5t90 117t140 72t182 24.5q33 0 79.5 -4.5t94.5 -11.5t90.5 -16t66.5 -18v48q0 88 -10 151t-38.5 103.5t-79 60t-131.5 19.5q-77 0 -143.5 -17t-116.5 -38t-80.5 -40t-35.5 -24l-68 132l45 25q175 105 376 105q137 0 228 -27.5t145 -87.5 t76.5 -156t22.5 -233v-686h-140l-28 178q-146 -201 -405 -201q-93 0 -166 23.5t-123 69.5t-76.5 113.5t-26.5 155.5zM257 1390l292 501h96l292 -501l-128 -78l-212 377l-212 -377zM294 347q0 -119 59.5 -173.5t188.5 -54.5q173 0 336 152v298q-128 21 -241 21t-178.5 -16 t-100.5 -48q-64 -58 -64 -179z" />
<glyph unicode="&#xe3;" horiz-adv-x="1249" d="M103 339v4q0 89 32 158.5t90 117t140 72t182 24.5q33 0 79.5 -4.5t94.5 -11.5t90.5 -16t66.5 -18v48q0 88 -10 151t-38.5 103.5t-79 60t-131.5 19.5q-77 0 -143.5 -17t-116.5 -38t-80.5 -40t-35.5 -24l-68 132l45 25q175 105 376 105q137 0 228 -27.5t145 -87.5 t76.5 -156t22.5 -233v-686h-140l-28 178q-146 -201 -405 -201q-93 0 -166 23.5t-123 69.5t-76.5 113.5t-26.5 155.5zM216 1316q0 260 201 260q56 0 102.5 -19.5t88.5 -42.5l78 -44q37 -19 75 -19q59 0 59 111h156q0 -57 -13.5 -103t-38.5 -78.5t-60.5 -50.5t-79.5 -18 q-56 0 -108 18.5t-97 41.5l-83 40q-38 19 -65 19q-29 0 -44 -24.5t-15 -90.5h-156zM294 347q0 -119 59.5 -173.5t188.5 -54.5q173 0 336 152v298q-128 21 -241 21t-178.5 -16t-100.5 -48q-64 -58 -64 -179z" />
<glyph unicode="&#xe4;" horiz-adv-x="1249" d="M103 339v4q0 89 32 158.5t90 117t140 72t182 24.5q33 0 79.5 -4.5t94.5 -11.5t90.5 -16t66.5 -18v48q0 88 -10 151t-38.5 103.5t-79 60t-131.5 19.5q-77 0 -143.5 -17t-116.5 -38t-80.5 -40t-35.5 -24l-68 132l45 25q175 105 376 105q137 0 228 -27.5t145 -87.5 t76.5 -156t22.5 -233v-686h-140l-28 178q-146 -201 -405 -201q-93 0 -166 23.5t-123 69.5t-76.5 113.5t-26.5 155.5zM241 1427q0 23 8 44t23 36.5t35.5 25t45.5 9.5q48 0 78 -33.5t30 -81.5t-30 -81.5t-78 -33.5q-25 0 -45.5 9t-35.5 25t-23 37t-8 44zM294 347 q0 -119 59.5 -173.5t188.5 -54.5q173 0 336 152v298q-128 21 -241 21t-178.5 -16t-100.5 -48q-64 -58 -64 -179zM731 1427q0 23 8 44t23 36.5t35.5 25t45.5 9.5q48 0 78 -33.5t30 -81.5t-30 -81.5t-78 -33.5q-25 0 -45.5 9t-35.5 25t-23 37t-8 44z" />
<glyph unicode="&#xe5;" horiz-adv-x="1249" d="M103 339v4q0 89 32 158.5t90 117t140 72t182 24.5q33 0 79.5 -4.5t94.5 -11.5t90.5 -16t66.5 -18v48q0 88 -10 151t-38.5 103.5t-79 60t-131.5 19.5q-77 0 -143.5 -17t-116.5 -38t-80.5 -40t-35.5 -24l-68 132l45 25q175 105 376 105q137 0 228 -27.5t145 -87.5 t76.5 -156t22.5 -233v-686h-140l-28 178q-146 -201 -405 -201q-93 0 -166 23.5t-123 69.5t-76.5 113.5t-26.5 155.5zM294 347q0 -119 59.5 -173.5t188.5 -54.5q173 0 336 152v298q-128 21 -241 21t-178.5 -16t-100.5 -48q-64 -58 -64 -179zM356 1551q0 52 18 96t50.5 76 t77.5 50t98 18q52 0 95.5 -18t74.5 -50.5t48.5 -76.5t17.5 -95t-17 -95t-48 -76t-74.5 -50t-96.5 -18q-54 0 -99 18.5t-77.5 50.5t-50 75.5t-17.5 94.5zM453 1551q0 -31 11.5 -58t31 -47.5t46 -32t56.5 -11.5q31 0 57 11.5t45 32t29 47.5t10 58t-10 58.5t-29 47.5t-45 31.5 t-57 11.5q-32 0 -58.5 -12t-45.5 -32t-30 -47.5t-11 -57.5z" />
<glyph unicode="&#xe6;" horiz-adv-x="1897" d="M116 339v4q0 89 32 158.5t90 117t140 72t182 24.5q34 0 76.5 -4t85 -11t80.5 -16t62 -19v48q0 96 -9.5 160t-37 103t-77 55t-128.5 16q-55 0 -111 -12t-105.5 -29.5t-88 -37t-58.5 -34.5l-67 125q31 27 82.5 50.5t110.5 41.5t119 28.5t108 10.5q81 0 144 -12t110 -38 t78.5 -68t49.5 -102q27 55 68.5 96.5t93 69t111 41t122.5 13.5q108 0 190.5 -37t138.5 -104.5t85 -162t29 -210.5q0 -24 -2 -51t-6 -58h-760q0 -99 16 -180.5t56 -139t106.5 -89t167.5 -31.5q169 0 306 117l62 -145q-38 -28 -88.5 -50.5t-103 -38.5t-102 -24.5t-86.5 -8.5 q-151 0 -260 59t-173 171q-33 -44 -79.5 -85.5t-103.5 -73.5t-123.5 -51.5t-140.5 -19.5q-93 0 -166 23.5t-123 69.5t-76.5 113.5t-26.5 155.5zM307 356q0 -64 14.5 -109t45 -73.5t77 -41.5t111.5 -13q146 0 309 152v298q-131 21 -235 21q-97 0 -159.5 -17t-98.5 -47.5 t-50 -74t-14 -95.5zM1054 682h600v35q0 110 -27.5 177t-68.5 103t-89 48t-89 12q-32 0 -68 -5.5t-72.5 -20.5t-70 -41.5t-59 -68.5t-41 -100.5t-15.5 -138.5z" />
<glyph unicode="&#xe7;" horiz-adv-x="1122" d="M108 580q0 121 23.5 213t63 160t91.5 113.5t108.5 73t114.5 39t110 11.5q201 0 388 -133l-57 -133q-134 116 -314 116q-163 0 -250.5 -112.5t-87.5 -347.5q0 -128 26.5 -214.5t70.5 -139.5t102.5 -76t123.5 -23q202 0 329 118l57 -134q-188 -134 -391 -134 q-50 0 -107.5 11t-114 37.5t-108.5 71.5t-91.5 112t-63 158.5t-23.5 212.5zM425 -500q-2 0 18.5 -6.5t49 -14t56.5 -14t40 -6.5q34 0 59.5 4t42.5 18t26 41t11 73q0 39 -14.5 66.5t-45 44t-78.5 24t-115 7.5v262h121v-174q61 0 110 -12.5t83.5 -41t53 -75t18.5 -115.5 q0 -236 -252 -236q-27 0 -55 4.5t-52 10.5t-43 12l-28 9l-6 2v117z" />
<glyph unicode="&#xe8;" horiz-adv-x="1145" d="M108 578q0 147 39 261t107.5 192t163 118.5t205.5 40.5q108 0 190.5 -37t138.5 -104.5t85 -162t29 -210.5q0 -24 -2 -51t-6 -58h-760q0 -99 16 -180.5t56 -139t106.5 -89t167.5 -31.5q169 0 306 117l62 -145q-38 -28 -88.5 -50.5t-103 -38.5t-102 -24.5t-86.5 -8.5 q-126 0 -223.5 41.5t-164.5 119.5t-101.5 189.5t-34.5 250.5zM262 1867l242 89l153 -618l-67 -26zM298 682h600v35q0 110 -27.5 177t-68.5 103t-89 48t-89 12q-32 0 -68 -5.5t-72.5 -20.5t-70 -41.5t-59 -68.5t-41 -100.5t-15.5 -138.5z" />
<glyph unicode="&#xe9;" horiz-adv-x="1145" d="M108 578q0 147 39 261t107.5 192t163 118.5t205.5 40.5q108 0 190.5 -37t138.5 -104.5t85 -162t29 -210.5q0 -24 -2 -51t-6 -58h-760q0 -99 16 -180.5t56 -139t106.5 -89t167.5 -31.5q169 0 306 117l62 -145q-38 -28 -88.5 -50.5t-103 -38.5t-102 -24.5t-86.5 -8.5 q-126 0 -223.5 41.5t-164.5 119.5t-101.5 189.5t-34.5 250.5zM298 682h600v35q0 110 -27.5 177t-68.5 103t-89 48t-89 12q-32 0 -68 -5.5t-72.5 -20.5t-70 -41.5t-59 -68.5t-41 -100.5t-15.5 -138.5zM595 1338l159 611l232 -91l-334 -546z" />
<glyph unicode="&#xea;" horiz-adv-x="1145" d="M108 578q0 147 39 261t107.5 192t163 118.5t205.5 40.5q108 0 190.5 -37t138.5 -104.5t85 -162t29 -210.5q0 -24 -2 -51t-6 -58h-760q0 -99 16 -180.5t56 -139t106.5 -89t167.5 -31.5q169 0 306 117l62 -145q-38 -28 -88.5 -50.5t-103 -38.5t-102 -24.5t-86.5 -8.5 q-126 0 -223.5 41.5t-164.5 119.5t-101.5 189.5t-34.5 250.5zM282 1420l292 501h96l292 -501l-128 -78l-212 377l-212 -377zM298 682h600v35q0 110 -27.5 177t-68.5 103t-89 48t-89 12q-32 0 -68 -5.5t-72.5 -20.5t-70 -41.5t-59 -68.5t-41 -100.5t-15.5 -138.5z" />
<glyph unicode="&#xeb;" horiz-adv-x="1145" d="M108 578q0 147 39 261t107.5 192t163 118.5t205.5 40.5q108 0 190.5 -37t138.5 -104.5t85 -162t29 -210.5q0 -24 -2 -51t-6 -58h-760q0 -99 16 -180.5t56 -139t106.5 -89t167.5 -31.5q169 0 306 117l62 -145q-38 -28 -88.5 -50.5t-103 -38.5t-102 -24.5t-86.5 -8.5 q-126 0 -223.5 41.5t-164.5 119.5t-101.5 189.5t-34.5 250.5zM268 1467q0 23 8 44t23 36.5t35.5 25t45.5 9.5q48 0 78 -33.5t30 -81.5t-30 -81.5t-78 -33.5q-25 0 -45.5 9t-35.5 25t-23 37t-8 44zM298 682h600v35q0 110 -27.5 177t-68.5 103t-89 48t-89 12q-32 0 -68 -5.5 t-72.5 -20.5t-70 -41.5t-59 -68.5t-41 -100.5t-15.5 -138.5zM758 1467q0 23 8 44t23 36.5t35.5 25t45.5 9.5q48 0 78 -33.5t30 -81.5t-30 -81.5t-78 -33.5q-25 0 -45.5 9t-35.5 25t-23 37t-8 44z" />
<glyph unicode="&#xec;" horiz-adv-x="600" d="M-46 1867l242 89l153 -618l-67 -26zM226 0v1169h182v-1169h-182z" />
<glyph unicode="&#xed;" horiz-adv-x="600" d="M226 0v1169h182v-1169h-182zM287 1338l159 611l232 -91l-334 -546z" />
<glyph unicode="&#xee;" horiz-adv-x="600" d="M-24 1420l292 501h96l292 -501l-128 -78l-212 377l-212 -377zM226 0v1169h182v-1169h-182z" />
<glyph unicode="&#xef;" horiz-adv-x="600" d="M-39 1467q0 23 8.5 44t23.5 36.5t35.5 25t44.5 9.5q48 0 78 -33.5t30 -81.5t-30 -81.5t-78 -33.5q-24 0 -44.5 9.5t-35.5 25t-23.5 36.5t-8.5 44zM226 0v1169h182v-1169h-182zM451 1467q0 23 8 44t23 36.5t35.5 25t45.5 9.5q48 0 78 -33.5t30 -81.5t-30 -81.5t-78 -33.5 q-25 0 -45.5 9t-35.5 25t-23 37t-8 44z" />
<glyph unicode="&#xf0;" horiz-adv-x="1265" d="M112 584q0 124 29.5 234t87.5 192.5t144.5 131t200.5 48.5q58 0 113.5 -14.5t103.5 -37.5t86.5 -52t61.5 -58q-27 81 -76.5 166.5t-116 166.5t-146 153.5t-165.5 126.5l84 102q66 -37 137 -90t138.5 -123.5t128.5 -158t106.5 -192.5t72.5 -227t27 -262q0 -710 -533 -710 q-129 0 -220.5 49t-150 132t-86 192.5t-27.5 230.5zM294 587q0 -464 298 -464q85 0 150.5 27.5t110.5 91t68.5 167.5t23.5 257q0 76 -15.5 134t-42 100t-60 70.5t-70 45.5t-72.5 24t-67 7q-38 0 -77 -6t-75 -23.5t-67.5 -49t-54.5 -82.5t-36.5 -124.5t-13.5 -174.5z M453 1401l648 192l42 -90l-648 -192z" />
<glyph unicode="&#xf1;" horiz-adv-x="1371" d="M191 0v1169h140l24 -187q30 38 80.5 75t111 66t127.5 47t130 18q37 0 79.5 -7t83.5 -25.5t78.5 -51t66.5 -83.5t46 -123.5t17 -170.5v-727h-190v727q0 70 -10.5 129t-36 101.5t-69 66t-108.5 23.5q-49 0 -107 -18.5t-111.5 -45t-97 -55t-64.5 -48.5v-880h-190zM298 1316 q0 260 201 260q56 0 102.5 -19.5t88.5 -42.5l78 -43q37 -20 75 -20q59 0 59 111h156q0 -57 -13.5 -103t-38.5 -78.5t-60.5 -50.5t-79.5 -18q-56 0 -108 18.5t-97 41.5l-83 41q-38 18 -65 18q-29 0 -44 -24.5t-15 -90.5h-156z" />
<glyph unicode="&#xf2;" d="M126 582q0 126 32.5 236.5t98.5 193t165.5 130.5t233.5 48q136 0 236 -48.5t165.5 -131.5t97.5 -193.5t32 -234.5q0 -126 -32.5 -235.5t-98.5 -191t-165.5 -128.5t-234.5 -47q-136 0 -235.5 47.5t-165 129.5t-97.5 191.5t-32 233.5zM276 1867l242 89l153 -618l-67 -26z M308 582q0 -98 19 -183t60.5 -147.5t107.5 -98.5t161 -36q96 0 162.5 36.5t108 99.5t59.5 147.5t18 181.5q0 99 -19 184.5t-61 149t-108 99.5t-160 36q-72 0 -127 -21t-94.5 -58.5t-65.5 -89.5t-41 -114q-20 -85 -20 -186z" />
<glyph unicode="&#xf3;" d="M126 582q0 126 32.5 236.5t98.5 193t165.5 130.5t233.5 48q136 0 236 -48.5t165.5 -131.5t97.5 -193.5t32 -234.5q0 -126 -32.5 -235.5t-98.5 -191t-165.5 -128.5t-234.5 -47q-136 0 -235.5 47.5t-165 129.5t-97.5 191.5t-32 233.5zM308 582q0 -98 19 -183t60.5 -147.5 t107.5 -98.5t161 -36q96 0 162.5 36.5t108 99.5t59.5 147.5t18 181.5q0 99 -19 184.5t-61 149t-108 99.5t-160 36q-72 0 -127 -21t-94.5 -58.5t-65.5 -89.5t-41 -114q-20 -85 -20 -186zM609 1338l159 611l232 -91l-334 -546z" />
<glyph unicode="&#xf4;" d="M126 582q0 126 32.5 236.5t98.5 193t165.5 130.5t233.5 48q136 0 236 -48.5t165.5 -131.5t97.5 -193.5t32 -234.5q0 -126 -32.5 -235.5t-98.5 -191t-165.5 -128.5t-234.5 -47q-136 0 -235.5 47.5t-165 129.5t-97.5 191.5t-32 233.5zM298 1420l292 501h96l292 -501 l-128 -78l-212 377l-212 -377zM308 582q0 -98 19 -183t60.5 -147.5t107.5 -98.5t161 -36q96 0 162.5 36.5t108 99.5t59.5 147.5t18 181.5q0 99 -19 184.5t-61 149t-108 99.5t-160 36q-72 0 -127 -21t-94.5 -58.5t-65.5 -89.5t-41 -114q-20 -85 -20 -186z" />
<glyph unicode="&#xf5;" d="M126 582q0 126 32.5 236.5t98.5 193t165.5 130.5t233.5 48q136 0 236 -48.5t165.5 -131.5t97.5 -193.5t32 -234.5q0 -126 -32.5 -235.5t-98.5 -191t-165.5 -128.5t-234.5 -47q-136 0 -235.5 47.5t-165 129.5t-97.5 191.5t-32 233.5zM258 1316q0 260 201 260 q56 0 102.5 -19.5t87.5 -42.5l79 -44q37 -19 75 -19q59 0 59 111h156q0 -57 -13.5 -103t-38.5 -78.5t-60.5 -50.5t-79.5 -18q-56 0 -108 18.5t-97 41.5l-83 40q-38 19 -65 19q-29 0 -44 -24.5t-15 -90.5h-156zM308 582q0 -98 19 -183t60.5 -147.5t107.5 -98.5t161 -36 q96 0 162.5 36.5t108 99.5t59.5 147.5t18 181.5q0 99 -19 184.5t-61 149t-108 99.5t-160 36q-72 0 -127 -21t-94.5 -58.5t-65.5 -89.5t-41 -114q-20 -85 -20 -186z" />
<glyph unicode="&#xf6;" d="M126 582q0 126 32.5 236.5t98.5 193t165.5 130.5t233.5 48q136 0 236 -48.5t165.5 -131.5t97.5 -193.5t32 -234.5q0 -126 -32.5 -235.5t-98.5 -191t-165.5 -128.5t-234.5 -47q-136 0 -235.5 47.5t-165 129.5t-97.5 191.5t-32 233.5zM283 1467q0 23 8 44t23 36.5t35.5 25 t45.5 9.5q48 0 78 -33.5t30 -81.5t-30 -81.5t-78 -33.5q-25 0 -45.5 9t-35.5 25t-23 37t-8 44zM308 582q0 -98 19 -183t60.5 -147.5t107.5 -98.5t161 -36q96 0 162.5 36.5t108 99.5t59.5 147.5t18 181.5q0 99 -19 184.5t-61 149t-108 99.5t-160 36q-72 0 -127 -21 t-94.5 -58.5t-65.5 -89.5t-41 -114q-20 -85 -20 -186zM773 1467q0 23 8 44t23 36.5t35.5 25t45.5 9.5q48 0 78 -33.5t30 -81.5t-30 -81.5t-78 -33.5q-25 0 -45.5 9t-35.5 25t-23 37t-8 44z" />
<glyph unicode="&#xf7;" horiz-adv-x="1068" d="M224 508v131h682v-131h-682zM449 300q0 23 8 44t23 36.5t35.5 25t45.5 9.5q48 0 78 -33.5t30 -81.5t-30 -81.5t-78 -33.5q-25 0 -45.5 9t-35.5 25t-23 37t-8 44zM451 835q0 23 8 44t23 36.5t35.5 25t45.5 9.5q48 0 78 -33.5t30 -81.5t-30 -81.5t-78 -33.5q-25 0 -45.5 9 t-35.5 25t-23 37t-8 44z" />
<glyph unicode="&#xf8;" horiz-adv-x="1277" d="M108 582q0 121 31.5 231.5t96.5 194t165 133t237 49.5q136 0 236 -48.5t165.5 -131.5t97.5 -193.5t32 -234.5t-31.5 -233.5t-97 -191.5t-165.5 -129.5t-237 -47.5q-131 0 -230.5 45.5t-166 125.5t-100 190.5t-33.5 240.5zM290 582q0 -98 19 -183t60.5 -147.5t107.5 -98.5 t161 -36q96 0 162.5 36.5t108 99.5t59.5 147.5t18 181.5q0 99 -19 184.5t-61 149t-108 99.5t-160 36q-72 0 -127 -21t-94.5 -58.5t-65.5 -89.5t-41 -114q-20 -85 -20 -186zM334 -168l529 1533l81 -30l-522 -1533z" />
<glyph unicode="&#xf9;" horiz-adv-x="1264" d="M132 442v727h190v-727q0 -77 12.5 -136.5t40 -100t72 -61.5t107.5 -21q194 0 354 151v895h190v-1169h-141l-27 176q-90 -101 -183 -148.5t-203 -47.5q-96 0 -172.5 26.5t-130 83t-81.5 143.5t-28 209zM254 1867l242 89l153 -618l-67 -26z" />
<glyph unicode="&#xfa;" horiz-adv-x="1264" d="M132 442v727h190v-727q0 -77 12.5 -136.5t40 -100t72 -61.5t107.5 -21q194 0 354 151v895h190v-1169h-141l-27 176q-90 -101 -183 -148.5t-203 -47.5q-96 0 -172.5 26.5t-130 83t-81.5 143.5t-28 209zM587 1338l159 611l232 -91l-334 -546z" />
<glyph unicode="&#xfb;" horiz-adv-x="1264" d="M132 442v727h190v-727q0 -77 12.5 -136.5t40 -100t72 -61.5t107.5 -21q194 0 354 151v895h190v-1169h-141l-27 176q-90 -101 -183 -148.5t-203 -47.5q-96 0 -172.5 26.5t-130 83t-81.5 143.5t-28 209zM274 1420l292 501h96l292 -501l-128 -78l-212 377l-212 -377z" />
<glyph unicode="&#xfc;" horiz-adv-x="1264" d="M132 442v727h190v-727q0 -77 12.5 -136.5t40 -100t72 -61.5t107.5 -21q194 0 354 151v895h190v-1169h-141l-27 176q-90 -101 -183 -148.5t-203 -47.5q-96 0 -172.5 26.5t-130 83t-81.5 143.5t-28 209zM260 1467q0 23 8 44t23 36.5t35.5 25t45.5 9.5q48 0 78 -33.5 t30 -81.5t-30 -81.5t-78 -33.5q-25 0 -45.5 9t-35.5 25t-23 37t-8 44zM750 1467q0 23 8 44t23 36.5t35.5 25t45.5 9.5q48 0 78 -33.5t30 -81.5t-30 -81.5t-78 -33.5q-25 0 -45.5 9t-35.5 25t-23 37t-8 44z" />
<glyph unicode="&#xfd;" horiz-adv-x="1223" d="M93 1169h182l355 -920l301 920h195l-437 -1206l-39 -108q-16 -41 -24 -58q-61 -133 -153.5 -194.5t-217.5 -61.5l-51 125q150 25 217 95q66 69 123 262zM512 1338l159 611l232 -91l-334 -546z" />
<glyph unicode="&#xfe;" horiz-adv-x="1361" d="M129 -487v2052h184v-561q32 40 72.5 74t86.5 59t97 39t105 14q85 0 152.5 -24t119.5 -66t89.5 -100t61.5 -125t35 -141.5t11 -149.5q0 -116 -27 -224.5t-84 -193t-146 -135.5t-212 -51q-249 0 -359 137v-582zM322 244q30 -26 71.5 -48t89.5 -38.5t99 -25.5t100 -9 q35 0 72 10.5t70.5 35.5t62 67.5t45.5 106.5q29 108 29 200q0 54 -4 112t-15.5 114t-31.5 106.5t-52 88.5t-77 60.5t-107 22.5q-60 0 -114.5 -19t-99 -45t-76 -52t-46.5 -41z" />
<glyph unicode="&#xff;" horiz-adv-x="1223" d="M93 1169h182l355 -920l301 920h195l-437 -1206l-39 -108q-16 -41 -24 -58q-61 -133 -153.5 -194.5t-217.5 -61.5l-51 125q150 25 217 95q66 69 123 262zM185 1467q0 23 8 44t23 36.5t35.5 25t45.5 9.5q48 0 78 -33.5t30 -81.5t-30 -81.5t-78 -33.5q-25 0 -45.5 9 t-35.5 25t-23 37t-8 44zM675 1467q0 23 8 44t23 36.5t35.5 25t45.5 9.5q48 0 78 -33.5t30 -81.5t-30 -81.5t-78 -33.5q-25 0 -45.5 9t-35.5 25t-23 37t-8 44z" />
<glyph unicode="&#x152;" horiz-adv-x="2847" d="M145 784q0 179 30.5 310t81.5 222.5t117 149t137 89.5t142 43.5t132 11.5q124 0 222 -28t172.5 -80t126.5 -126.5t85.5 -166t48.5 -199t15 -226.5q0 -176 -34.5 -326.5t-112 -261.5t-203 -174t-306.5 -63q-64 0 -137 10.5t-146 41.5t-140 87.5t-118.5 148t-82 223.5 t-30.5 314zM345 784q0 -187 32.5 -315.5t93 -208t146.5 -114.5t193 -35q93 0 162 27t118.5 75t81.5 112.5t50.5 139t25.5 156.5t7 163q0 189 -32 318t-91 208t-143 113.5t-188 34.5q-136 0 -224.5 -53t-140 -144.5t-71.5 -214.5t-20 -262zM1810 0v1579h970v-143h-776v-545 h678v-115h-678v-633h789v-143h-983z" />
<glyph unicode="&#x153;" horiz-adv-x="2476" d="M126 582q0 126 32.5 236.5t98.5 193t165.5 130.5t233.5 48q136 0 236 -48.5t165.5 -131.5t97.5 -193.5t32 -234.5q0 -126 -32.5 -235.5t-98.5 -191t-165.5 -128.5t-234.5 -47q-136 0 -235.5 47.5t-165 129.5t-97.5 191.5t-32 233.5zM308 582q0 -98 19 -183t60.5 -147.5 t107.5 -98.5t161 -36q96 0 162.5 36.5t108 99.5t59.5 147.5t18 181.5q0 99 -19 184.5t-61 149t-108 99.5t-160 36q-72 0 -127 -21t-94.5 -58.5t-65.5 -89.5t-41 -114q-20 -88 -20 -186zM1439 578q0 147 39 261t107.5 192t163 118.5t205.5 40.5q108 0 190.5 -37t138.5 -104.5 t85 -162t29 -210.5q0 -24 -2 -51t-6 -58h-760q0 -99 16 -180.5t56 -139t106.5 -89t167.5 -31.5q169 0 306 117l62 -145q-38 -28 -88.5 -50.5t-103 -38.5t-102 -24.5t-86.5 -8.5q-126 0 -223.5 41.5t-164.5 119.5t-101.5 189.5t-34.5 250.5zM1629 682h600v35q0 110 -27.5 177 t-68.5 103t-89 48t-89 12q-32 0 -68 -5.5t-72.5 -20.5t-70 -41.5t-59 -68.5t-41 -100.5t-15.5 -138.5z" />
<glyph unicode="&#x178;" horiz-adv-x="1272" d="M27 1579h197l354 -773l63 -129l413 902h191l-514 -1094v-485h-190v485zM281 1847q0 23 8 44t23 36.5t35.5 25t45.5 9.5q48 0 78 -33.5t30 -81.5t-30 -81.5t-78 -33.5q-25 0 -45.5 9t-35.5 25t-23 37t-8 44zM771 1847q0 23 8 44t23 36.5t35.5 25t45.5 9.5q48 0 78 -33.5 t30 -81.5t-30 -81.5t-78 -33.5q-25 0 -45.5 9t-35.5 25t-23 37t-8 44z" />
<glyph unicode="&#x2c6;" horiz-adv-x="1428" d="M374 510l292 501h96l292 -501l-128 -78l-212 377l-212 -377z" />
<glyph unicode="&#x2dc;" horiz-adv-x="512" d="M-380 126q0 260 201 260q56 0 102.5 -19.5t88.5 -42.5l78 -44q37 -19 75 -19q59 0 59 111h156q0 -57 -13.5 -103t-38.5 -78.5t-60.5 -50.5t-79.5 -18q-56 0 -108 18.5t-97 41.5l-83 40q-38 19 -65 19q-29 0 -44 -24.5t-15 -90.5h-156z" />
<glyph unicode="&#x2013;" horiz-adv-x="1265" d="M362 555v144h470v-144h-470z" />
<glyph unicode="&#x2014;" horiz-adv-x="1265" d="M127 555v144h940v-144h-940z" />
<glyph unicode="&#x2018;" horiz-adv-x="778" d="M68 885l242 89l153 -618l-67 -26z" />
<glyph unicode="&#x2019;" horiz-adv-x="537" d="M114 1286v293h281v-249q0 -115 -58.5 -190t-170.5 -107l-51 94q38 13 63 27t40 33t21 43t6 56h-131z" />
<glyph unicode="&#x201a;" horiz-adv-x="647" d="M224 0v293h281v-249q0 -115 -58.5 -190t-170.5 -107l-51 94q38 13 63 27t40 33t21 43t6 56h-131z" />
<glyph unicode="&#x201c;" horiz-adv-x="939" d="M141 1063v249q0 115 58.5 190t170.5 107l51 -94q-38 -13 -63 -27t-40 -32.5t-21 -42.5t-6 -57h131v-293h-281zM510 1063v249q0 115 58.5 190t170.5 107l51 -94q-38 -13 -63 -27t-40 -32.5t-21 -42.5t-6 -57h131v-293h-281z" />
<glyph unicode="&#x201d;" horiz-adv-x="831" d="M112 1286v293h281v-249q0 -115 -58.5 -190t-170.5 -107l-51 94q38 13 63 27t40 33t21 43t6 56h-131zM481 1286v293h281v-249q0 -115 -58.5 -190t-170.5 -107l-51 94q38 13 63 27t40 33t21 43t6 56h-131z" />
<glyph unicode="&#x201e;" horiz-adv-x="1112" d="M290 -19v293h281v-249q0 -115 -58.5 -190t-170.5 -107l-51 94q38 13 63 27t40 33t21 43t6 56h-131zM659 -19v293h281v-249q0 -115 -58.5 -190t-170.5 -107l-51 94q38 13 63 27t40 33t21 43t6 56h-131z" />
<glyph unicode="&#x2022;" horiz-adv-x="1361" d="M301 692q0 70 27 131.5t73.5 107t110 71.5t137.5 26q73 0 137 -26.5t111.5 -72t74.5 -107t27 -130.5q0 -139 -101 -237q-100 -97 -249 -97q-74 0 -137.5 26t-110 71t-73.5 106t-27 131z" />
<glyph unicode="&#x2026;" horiz-adv-x="1554" d="M133 98q0 23 8 44t23 36.5t35.5 25t45.5 9.5q48 0 78 -33.5t30 -81.5t-30 -81.5t-78 -33.5q-25 0 -45.5 9t-35.5 25t-23 37t-8 44zM651 98q0 23 8 44t23 36.5t35.5 25t45.5 9.5q48 0 78 -33.5t30 -81.5t-30 -81.5t-78 -33.5q-25 0 -45.5 9t-35.5 25t-23 37t-8 44z M1169 98q0 23 8 44t23 36.5t35.5 25t45.5 9.5q48 0 78 -33.5t30 -81.5t-30 -81.5t-78 -33.5q-25 0 -45.5 9t-35.5 25t-23 37t-8 44z" />
<glyph unicode="&#x2039;" horiz-adv-x="768" d="M80 481v185l608 383v-207l-447 -265l447 -271v-207z" />
<glyph unicode="&#x203a;" horiz-adv-x="768" d="M80 99v207l446 271l-446 265v207l608 -383v-185z" />
<glyph unicode="&#x20ac;" horiz-adv-x="1162" d="M48 809v122h204q7 114 40.5 208t95.5 160.5t153 103t212 36.5q54 0 101 -6.5t84.5 -15t64.5 -18t41 -16.5l14 -7l-43 -122q-2 0 -22 8.5t-55 18.5t-83 18.5t-105 8.5q-163 0 -249.5 -96.5t-86.5 -280.5h394v-122h-405q-2 -14 -3 -42t-2 -71h353v-122h-354 q0 -139 29.5 -230t75.5 -144t102.5 -75t111.5 -23q59 0 111.5 12t91 26t61 26t21.5 12l52 -123q-1 -1 -24.5 -15.5t-69.5 -32t-115 -31.5t-161 -14q-80 0 -159 37.5t-143 114t-105.5 191t-47.5 269.5h-164v122h160q1 43 2 71t2 42h-180z" />
<glyph unicode="&#x2122;" horiz-adv-x="1634" d="M72 1310v103h554v-103h-209v-686h-135v686h-210zM736 624v789h229l184 -655l184 655h229v-789h-127v664l-197 -664h-178l-196 664v-664h-128z" />
<glyph unicode="&#xe000;" horiz-adv-x="1170" d="M0 1170h1170v-1170h-1170v1170z" />
<glyph unicode="&#xfb01;" horiz-adv-x="1417" d="M66 1064v105h195v29q0 140 23.5 229.5t67 141t104.5 71t136 19.5q44 0 87.5 -13.5t78 -30t55.5 -31.5t21 -17l-63 -125q-83 74 -155 74q-48 0 -79.5 -7.5t-50.5 -29.5t-27 -61t-8 -102v-73v-74h348v-105h-348v-1064h-190v1064h-195zM1031 1462q0 23 8 44t23 36.5t35.5 25 t45.5 9.5q48 0 78 -33.5t30 -81.5t-30 -81.5t-78 -33.5q-25 0 -45.5 9t-35.5 25t-23 37t-8 44zM1048 0v1169h182v-1169h-182z" />
<glyph unicode="&#xfb02;" horiz-adv-x="1415" d="M66 1064v105h195v29q0 140 23.5 229.5t67 141t104.5 71t136 19.5q44 0 87.5 -13.5t78 -30t55.5 -31.5t21 -17l-63 -125q-83 74 -155 74q-48 0 -79.5 -7.5t-50.5 -29.5t-27 -61t-8 -102v-73v-74h348v-105h-348v-1064h-190v1064h-195zM1025 0v1579l190 35v-1614h-190z" />
<glyph unicode="&#xfb03;" horiz-adv-x="2242" d="M66 1064v105h195v29q0 140 23.5 229.5t67 141t104.5 71t136 19.5q44 0 87.5 -13.5t78 -30t55.5 -31.5t21 -17l-63 -125q-83 74 -155 74q-48 0 -79.5 -7.5t-50.5 -29.5t-27 -61t-8 -102v-73v-74h348v-105h-348v-1064h-190v1064h-195zM891 1064v105h195v29 q0 140 23.5 229.5t67 141t104.5 71t136 19.5q44 0 87.5 -13.5t78 -30t55.5 -31.5t21 -17l-63 -125q-83 74 -155 74q-48 0 -79.5 -7.5t-50.5 -29.5t-27 -61t-8 -102v-73v-74h348v-105h-348v-1064h-190v1064h-195zM1856 1462q0 23 8 44t23 36.5t35.5 25t45.5 9.5 q48 0 78 -33.5t30 -81.5t-30 -81.5t-78 -33.5q-25 0 -45.5 9t-35.5 25t-23 37t-8 44zM1873 0v1169h182v-1169h-182z" />
<glyph unicode="&#xfb04;" horiz-adv-x="2240" d="M66 1064v105h195v29q0 140 23.5 229.5t67 141t104.5 71t136 19.5q44 0 87.5 -13.5t78 -30t55.5 -31.5t21 -17l-63 -125q-83 74 -155 74q-48 0 -79.5 -7.5t-50.5 -29.5t-27 -61t-8 -102v-73v-74h348v-105h-348v-1064h-190v1064h-195zM891 1064v105h195v29 q0 140 23.5 229.5t67 141t104.5 71t136 19.5q44 0 87.5 -13.5t78 -30t55.5 -31.5t21 -17l-63 -125q-83 74 -155 74q-48 0 -79.5 -7.5t-50.5 -29.5t-27 -61t-8 -102v-73v-74h348v-105h-348v-1064h-190v1064h-195zM1850 0v1579l190 35v-1614h-190z" />
</font>
</defs>
</svg>
